<svg width="25" height="519" viewBox="0 0 25 519" fill="none" xmlns="http://www.w3.org/2000/svg">
<path d="M11.7368 502.55L11.7368 1.9998" stroke="black" stroke-width="3" stroke-linecap="round"/>
<path fill-rule="evenodd" clip-rule="evenodd" d="M21.224 503.86C19.2159 501.998 15.4293 502.801 13.3425 504.766C13.0262 505.053 12.2713 505.102 11.8599 504.761C11.4608 504.841 11.0616 504.741 10.733 504.394C7.64424 501.34 1.66087 500.251 2.47821 505.361C3.12364 508.852 6.69716 512.777 9.10626 515.424C9.73268 516.112 10.2804 516.714 10.6774 517.199C15.4633 514.115 25.0364 507.83 21.224 503.86ZM10.322 499.417C10.4161 500.312 10.5266 501.215 10.6556 502.133C5.34703 498.016 -7.5362 499.777 7.80991 516.674C8.26067 517.168 8.71141 517.666 9.15674 518.163C9.30065 518.33 9.50836 518.451 9.74324 518.506C9.83557 518.77 10.2185 519 10.6638 519C11.1297 519 12.0514 518.364 12.6092 517.979C12.7294 517.896 12.8326 517.825 12.9108 517.774C18.3199 514.278 26.462 508.506 23.3257 503.555C21.7738 501.089 16.7884 500.246 12.7668 502.911C12.5997 501.729 12.4613 500.567 12.348 499.417L10.322 499.417Z" fill="black"/>
</svg>
