<svg width="342" height="82" viewBox="0 0 342 82" fill="none" xmlns="http://www.w3.org/2000/svg">
<path d="M118.887 17.248L123.255 12.726C123.516 12.4367 123.74 12.1754 123.927 11.942C124.123 11.7087 124.267 11.48 124.361 11.256C124.463 11.0227 124.515 10.7754 124.515 10.514C124.515 10.3647 124.487 10.2154 124.431 10.066C124.375 9.91671 124.291 9.78605 124.179 9.67405C124.067 9.55271 123.927 9.45938 123.759 9.39405C123.591 9.31938 123.395 9.28205 123.171 9.28205C122.872 9.28205 122.606 9.35671 122.373 9.50605C122.149 9.65538 121.976 9.86538 121.855 10.136C121.743 10.4067 121.687 10.7194 121.687 11.074H119.363C119.363 10.374 119.507 9.73471 119.797 9.15605C120.086 8.57738 120.52 8.11538 121.099 7.77005C121.687 7.42471 122.401 7.25205 123.241 7.25205C123.847 7.25205 124.384 7.34538 124.851 7.53205C125.317 7.70938 125.705 7.95205 126.013 8.26005C126.33 8.55871 126.568 8.89005 126.727 9.25405C126.885 9.61805 126.965 9.98671 126.965 10.36C126.965 10.892 126.834 11.382 126.573 11.83C126.311 12.2687 125.971 12.67 125.551 13.034L123.269 15.078H127.189V17.248H118.887ZM130.272 9.81405C130.272 9.26338 130.421 8.79671 130.72 8.41405C131.028 8.02205 131.429 7.72805 131.924 7.53205C132.428 7.32671 132.979 7.22405 133.576 7.22405C134.183 7.22405 134.733 7.32671 135.228 7.53205C135.732 7.72805 136.133 8.02205 136.432 8.41405C136.74 8.79671 136.894 9.26338 136.894 9.81405C136.894 10.262 136.796 10.654 136.6 10.99C136.413 11.3167 136.157 11.592 135.83 11.816C135.513 12.0307 135.158 12.1894 134.766 12.292C134.374 12.3947 133.977 12.446 133.576 12.446C133.175 12.446 132.778 12.3947 132.386 12.292C131.994 12.1894 131.639 12.0307 131.322 11.816C131.005 11.592 130.748 11.3167 130.552 10.99C130.365 10.654 130.272 10.262 130.272 9.81405ZM132.498 10.038C132.498 10.262 132.545 10.458 132.638 10.626C132.731 10.794 132.857 10.9247 133.016 11.018C133.184 11.1114 133.371 11.158 133.576 11.158C133.791 11.158 133.977 11.1114 134.136 11.018C134.304 10.9247 134.435 10.794 134.528 10.626C134.621 10.458 134.668 10.262 134.668 10.038C134.668 9.82338 134.621 9.63205 134.528 9.46405C134.444 9.28671 134.318 9.15138 134.15 9.05805C133.991 8.96471 133.8 8.91805 133.576 8.91805C133.371 8.91805 133.184 8.96471 133.016 9.05805C132.848 9.15138 132.717 9.28671 132.624 9.46405C132.54 9.63205 132.498 9.82338 132.498 10.038ZM129.922 14.588C129.922 14.0747 130.034 13.636 130.258 13.272C130.482 12.8987 130.776 12.6 131.14 12.376C131.504 12.1427 131.901 11.9747 132.33 11.872C132.759 11.76 133.175 11.704 133.576 11.704C133.977 11.704 134.393 11.76 134.822 11.872C135.251 11.9747 135.648 12.1427 136.012 12.376C136.385 12.6 136.684 12.8987 136.908 13.272C137.132 13.636 137.244 14.0747 137.244 14.588C137.244 15.036 137.146 15.4374 136.95 15.792C136.754 16.1467 136.483 16.45 136.138 16.702C135.793 16.954 135.401 17.1454 134.962 17.276C134.523 17.4067 134.061 17.472 133.576 17.472C133.1 17.472 132.643 17.4067 132.204 17.276C131.765 17.1454 131.373 16.954 131.028 16.702C130.683 16.45 130.412 16.1467 130.216 15.792C130.02 15.4374 129.922 15.036 129.922 14.588ZM132.274 14.224C132.274 14.5134 132.33 14.756 132.442 14.952C132.563 15.148 132.722 15.2974 132.918 15.4C133.123 15.5027 133.343 15.554 133.576 15.554C133.819 15.554 134.038 15.5027 134.234 15.4C134.439 15.2974 134.598 15.148 134.71 14.952C134.831 14.756 134.892 14.5134 134.892 14.224C134.892 13.9907 134.831 13.776 134.71 13.58C134.598 13.384 134.439 13.23 134.234 13.118C134.038 13.006 133.819 12.95 133.576 12.95C133.343 12.95 133.123 13.006 132.918 13.118C132.722 13.23 132.563 13.384 132.442 13.58C132.33 13.776 132.274 13.9907 132.274 14.224ZM151.241 7.44805H153.271L147.293 19.348H145.179L151.241 7.44805ZM163.326 12.348C163.326 12.8054 163.368 13.2254 163.452 13.608C163.536 13.9814 163.657 14.3034 163.816 14.574C163.974 14.8354 164.161 15.0407 164.376 15.19C164.6 15.33 164.847 15.4 165.118 15.4C165.388 15.4 165.631 15.33 165.846 15.19C166.07 15.0407 166.261 14.8354 166.42 14.574C166.578 14.3034 166.7 13.9814 166.784 13.608C166.868 13.2254 166.91 12.8054 166.91 12.348C166.91 11.8907 166.868 11.4754 166.784 11.102C166.7 10.7194 166.578 10.3974 166.42 10.136C166.261 9.86538 166.07 9.66005 165.846 9.52005C165.631 9.37071 165.388 9.29605 165.118 9.29605C164.847 9.29605 164.6 9.37071 164.376 9.52005C164.161 9.66005 163.974 9.86538 163.816 10.136C163.657 10.3974 163.536 10.7194 163.452 11.102C163.368 11.4754 163.326 11.8907 163.326 12.348ZM161.044 12.348C161.044 11.284 161.212 10.374 161.548 9.61805C161.893 8.86205 162.374 8.28338 162.99 7.88205C163.606 7.47138 164.315 7.26605 165.118 7.26605C165.958 7.26605 166.681 7.47138 167.288 7.88205C167.894 8.28338 168.361 8.86205 168.688 9.61805C169.024 10.374 169.192 11.284 169.192 12.348C169.192 13.412 169.024 14.322 168.688 15.078C168.361 15.834 167.894 16.4174 167.288 16.828C166.681 17.2294 165.958 17.43 165.118 17.43C164.315 17.43 163.606 17.2294 162.99 16.828C162.374 16.4174 161.893 15.834 161.548 15.078C161.212 14.322 161.044 13.412 161.044 12.348ZM177.481 10.892C177.481 10.556 177.406 10.2667 177.257 10.024C177.117 9.77205 176.921 9.58071 176.669 9.45005C176.426 9.31005 176.151 9.24005 175.843 9.24005C175.526 9.24005 175.241 9.31005 174.989 9.45005C174.746 9.58071 174.55 9.77205 174.401 10.024C174.261 10.2667 174.191 10.556 174.191 10.892C174.191 11.2187 174.261 11.508 174.401 11.76C174.55 12.012 174.746 12.208 174.989 12.348C175.241 12.488 175.526 12.558 175.843 12.558C176.151 12.558 176.426 12.488 176.669 12.348C176.921 12.208 177.117 12.012 177.257 11.76C177.406 11.508 177.481 11.2187 177.481 10.892ZM175.857 17.206H172.861L176.039 13.664L176.515 13.454C176.254 13.706 176.002 13.874 175.759 13.958C175.526 14.0327 175.232 14.07 174.877 14.07C174.513 14.07 174.149 14 173.785 13.86C173.43 13.7107 173.108 13.5007 172.819 13.23C172.53 12.95 172.296 12.614 172.119 12.222C171.942 11.83 171.853 11.3867 171.853 10.892C171.853 10.08 172.03 9.40338 172.385 8.86205C172.749 8.32071 173.23 7.91471 173.827 7.64405C174.434 7.36405 175.106 7.22405 175.843 7.22405C176.571 7.22405 177.234 7.36405 177.831 7.64405C178.438 7.91471 178.918 8.32071 179.273 8.86205C179.637 9.40338 179.819 10.08 179.819 10.892C179.819 11.4147 179.707 11.9 179.483 12.348C179.268 12.796 179.002 13.216 178.685 13.608L175.857 17.206ZM193.788 7.44805H195.818L189.84 19.348H187.726L193.788 7.44805ZM203.31 17.248L207.678 12.726C207.94 12.4367 208.164 12.1754 208.35 11.942C208.546 11.7087 208.691 11.48 208.784 11.256C208.887 11.0227 208.938 10.7754 208.938 10.514C208.938 10.3647 208.91 10.2154 208.854 10.066C208.798 9.91671 208.714 9.78605 208.602 9.67405C208.49 9.55271 208.35 9.45938 208.182 9.39405C208.014 9.31938 207.818 9.28205 207.594 9.28205C207.296 9.28205 207.03 9.35671 206.796 9.50605C206.572 9.65538 206.4 9.86538 206.278 10.136C206.166 10.4067 206.11 10.7194 206.11 11.074H203.786C203.786 10.374 203.931 9.73471 204.22 9.15605C204.51 8.57738 204.944 8.11538 205.522 7.77005C206.11 7.42471 206.824 7.25205 207.664 7.25205C208.271 7.25205 208.808 7.34538 209.274 7.53205C209.741 7.70938 210.128 7.95205 210.436 8.26005C210.754 8.55871 210.992 8.89005 211.15 9.25405C211.309 9.61805 211.388 9.98671 211.388 10.36C211.388 10.892 211.258 11.382 210.996 11.83C210.735 12.2687 210.394 12.67 209.974 13.034L207.692 15.078H211.612V17.248H203.31ZM213.814 15.512L219.498 7.44805H221.262V17.248H218.798V14.784L219.064 14.63V10.878L216.95 13.804H220.562L220.8 13.496H222.802V15.512H213.814Z" fill="#1F1F1F"/>
<path d="M184.042 79.3734C176.178 78.236 172.167 74.86 169.571 68.8613C166.777 62.0747 167.861 56.4347 167.805 56.732C168.201 53.9214 169.122 51.3214 171.021 49.196C172.835 51.6547 173.177 52.8347 173.602 54.168C171.721 55.9054 168.023 70.06 181.925 74.812C197.99 80.3014 208.041 58.7174 193.149 50.1814C189.847 48.3027 185.842 47.4587 182.282 48.984C181.45 46.6574 180.586 45.0814 179.543 43.5094C180.877 42.888 184.773 39.5 194.134 43.4147C212.471 51.436 209.991 82.7067 184.042 79.3734ZM168.01 70.168C161.965 73.54 155.026 72.3707 149.498 68.1907C140.158 60.916 143.197 51.6813 142.726 54.2C144.357 42.632 159.687 37.0294 169.767 47.7507C164.453 53.5574 164.919 63.2734 168.01 70.168ZM174.318 57.44C174.51 59.4987 174.402 61.5213 173.797 63.5C173.435 61.2853 173.774 59.2787 174.318 57.44ZM190.625 51.1547C207.147 58.3187 195.085 81.1 179.246 71.444C183.911 65.496 184.785 57.8187 182.881 50.8467C185.422 49.76 188.03 50.12 190.625 51.1547ZM136.654 59.0333C137.354 62.984 132.547 43.284 149.422 36.0427C151.27 35.2894 153.265 34.7427 155.346 34.46C155.321 34.464 155.294 34.4694 155.269 34.4734C158.705 34.0574 161.513 34.5027 161.367 34.476C165.625 35.0694 169.343 36.612 172.711 39.1454C172.694 39.1307 172.677 39.116 172.659 39.1014C172.699 39.132 172.838 39.24 172.867 39.2627C172.851 39.252 172.837 39.24 172.822 39.2294C185.237 49.0227 180.969 64.192 181.623 60.5174C180.77 66.7947 177.663 70.0974 178.039 69.6534C177.83 69.9174 177.751 70.0067 177.586 70.2454C176.257 69.0894 175.178 67.796 174.491 66.0654C174.735 65.996 174.991 65.8374 175.086 65.6174C181.207 51.4774 165.965 36.0547 151.914 40.9027C135.169 46.7093 138.085 68.5933 155.69 73.3973C159.967 74.5747 164.573 74.2373 168.866 71.8907C169.61 73.2627 170.365 74.3814 171.639 75.732C157.211 82.2947 138.835 74.948 136.654 59.0333ZM194.93 41.5654C186.619 37.9894 180.157 40.0627 178.438 41.98C170.719 32.2 157.183 29.564 146.665 35.1067C123.975 47.0867 134.57 85.0787 165.633 79.6267C168.261 79.168 170.897 78.2694 173.194 77.1454C180.543 82.928 193.941 83.1614 201.29 77.2734C211.507 69.0787 210.379 48.2174 194.93 41.5654Z" fill="#1F1F1F"/>
<path d="M127.023 42.8224C125.247 41.9944 123.477 41.1757 121.659 40.4531C120.53 40.0211 119.673 41.885 121.113 42.4317C122.939 43.157 124.595 43.873 126.018 44.541C126.622 44.817 127.125 44.6184 127.378 44.1824C127.633 43.749 127.513 43.0517 127.023 42.8224Z" fill="#1F1F1F"/>
<path d="M122.678 50.0068C121.815 49.8801 119.995 49.5001 119.995 49.5001C118.718 49.5001 118.526 51.2761 119.701 51.5908C121.513 52.0761 123.387 52.2628 125.258 52.2841C125.83 52.2895 126.31 51.8001 126.31 51.2321C126.31 49.8895 124.917 50.2775 122.678 50.0068Z" fill="#1F1F1F"/>
<path d="M125.059 58.8961C124.574 58.8961 121.442 59.6601 120.957 59.7855C119.621 60.1295 120.107 62.2241 121.53 61.8588C122.79 61.5468 124.055 61.2548 125.331 61.0041C125.905 60.8908 126.227 60.2135 126.082 59.6761C125.963 59.2455 125.566 58.8961 125.059 58.8961Z" fill="#1F1F1F"/>
<path d="M219.859 48.4396C220.305 48.2516 220.754 48.0756 221.21 47.9036C221.851 47.6596 222.065 47.1396 221.929 46.6329C221.543 45.2503 220.29 45.8303 214.049 48.8837C213.543 49.133 213.407 49.8409 213.679 50.2996C214.403 51.5383 215.421 50.3436 219.859 48.4396Z" fill="#1F1F1F"/>
<path d="M216.045 56.0332C215.371 56.0839 215.018 56.5399 215.018 57.0599C215.018 58.4999 216.326 58.1239 222.055 57.4972C222.751 57.4185 223.081 56.9786 223.081 56.4706C223.081 54.9172 221.698 55.5785 216.045 56.0332Z" fill="#1F1F1F"/>
<path d="M215.721 63.8476C214.461 63.1449 213.506 65.009 214.665 65.6556C216.57 66.7196 221.57 68.4503 221.57 66.2703C221.57 64.4863 219.57 65.9929 215.721 63.8476Z" fill="#1F1F1F"/>
</svg>
