<svg width="76" height="92" viewBox="0 0 76 92" fill="none" xmlns="http://www.w3.org/2000/svg">
<path d="M11.0873 22.6614C11.8126 23.3388 13.0006 22.8348 12.8926 21.7761C12.938 21.4868 12.85 21.1961 12.7993 20.8774C12.6967 19.9494 12.7046 18.6054 13.1833 17.8054C14.982 19.7641 14.482 23.9734 14.1206 26.6014C14.1313 26.5054 14.1473 26.4148 14.1566 26.3188C14.0766 26.9041 13.994 27.4921 13.918 28.0801C11.6913 26.8521 6.70064 24.0841 6.22598 21.5654C6.05931 18.8068 9.18597 20.9041 11.0873 22.6614ZM14.4126 30.7174C15.066 31.0028 15.8633 30.6308 15.9486 29.7161C16.1593 27.1921 16.706 24.7068 16.6393 22.1654C16.442 14.5894 10.926 13.3588 10.7007 19.6041C8.39799 17.9774 5.72063 17.0868 4.47529 19.4908C3.38196 21.6241 4.36464 23.5988 6.02197 25.3094C8.31931 27.6934 13.81 30.7081 14.4126 30.7174Z" fill="black"/>
<path d="M3.69926 35.5822C4.65659 35.3275 6.0259 36.9369 7.01124 36.5489C7.44724 36.5969 7.80058 36.3822 7.98991 36.0569C8.19925 35.6942 8.10858 35.4316 8.05124 35.0356C8.03258 34.7796 8.01924 34.3796 8.08591 34.1302C9.31658 35.1929 8.86059 38.1382 8.79525 40.3396C6.86059 39.4702 3.09659 37.6075 3.69926 35.5822ZM8.04057 34.0569C8.03923 34.0582 8.03923 34.0582 8.04057 34.0569V34.0569ZM10.4339 41.6969C10.7406 41.5036 10.9552 41.1742 10.9739 40.7875C11.0712 38.3875 11.4366 35.5902 10.4206 33.5862C9.37791 31.5235 6.31259 31.0782 6.03659 34.0915C1.83526 32.1795 1.05125 35.3689 1.78991 37.3756C2.72858 39.9102 6.39526 41.6235 8.86859 42.6622C9.13793 42.7769 9.37123 42.8476 9.67123 42.7676C10.1126 42.6502 10.4579 42.2782 10.4339 41.6969Z" fill="black"/>
<path d="M2.22475 4.19973C3.39542 4.24906 5.61943 6.70373 6.43677 6.66373C7.24743 6.88239 7.83274 6.19706 7.77407 5.66239C7.64207 4.59439 7.63274 3.13306 8.21408 2.22506C8.23408 2.24772 8.25541 2.27039 8.27674 2.29306C8.44341 2.53706 8.58073 2.7984 8.70473 3.06907C9.8474 5.97707 9.18741 8.21305 8.38074 11.6864C6.28341 10.3077 1.47942 6.61973 2.22475 4.19973ZM8.76876 14.0824C9.42476 14.3477 10.0848 13.9277 10.1994 13.3824C10.6714 11.069 11.3661 8.78905 11.4541 6.41438C11.5554 3.81838 10.2234 -0.6056 7.69542 0.069066C6.54476 0.375732 5.91543 1.85172 5.69809 3.02773C5.65943 3.24506 5.65676 3.46371 5.63543 3.68238C4.52876 2.85971 2.98341 1.78774 1.64474 2.14507C1.14741 2.27841 0.748762 2.59174 0.499428 2.97307C0.172762 3.47307 0.107432 3.92373 0.070099 4.33173C-0.00723432 5.07306 0.0554324 5.66374 0.336766 6.37841C1.68343 9.75174 7.7701 14.2544 8.76876 14.0824Z" fill="black"/>
<path d="M25.8931 89.5439C29.6038 81.5293 33.1104 73.3279 38.2878 66.1212C39.8424 66.7572 41.0878 67.2919 42.6971 68.0852C46.4438 69.9252 47.1771 70.9492 48.1611 70.1892C49.0078 69.9066 53.5184 63.0626 54.0024 62.3079C60.5331 67.3866 66.7651 71.1959 71.9851 76.7306C67.5758 78.3679 35.9464 88.3373 25.8931 89.5439ZM17.3117 45.3879C18.3144 46.9812 19.7038 48.0919 21.2571 49.1426C18.3998 49.8373 17.0531 49.9026 14.5411 50.6172C15.3611 48.8226 16.3957 47.1359 17.3117 45.3879ZM23.8358 42.9733C24.0744 43.1573 24.3024 43.2986 24.6198 43.2999C25.4091 43.3066 26.0491 42.4986 25.6038 41.6399C25.4438 39.3533 26.4477 36.7226 27.9424 38.4852C30.2891 41.8386 29.0038 46.3599 27.9824 50.2466C25.0438 49.1999 20.0851 46.4746 18.8038 43.6306C17.6798 40.4252 21.1144 40.7413 23.8358 42.9733ZM27.3944 37.9492C13.9211 32.8852 14.0838 32.4732 27.3944 37.9492V37.9492ZM27.3958 37.9506H27.3944C27.4584 37.9759 27.4718 37.9826 27.3958 37.9506ZM27.4478 27.6546C29.4651 28.7212 33.9384 31.0053 34.1478 28.7413C34.8091 27.8266 33.5118 20.9399 32.9918 19.3626C33.4358 19.0639 33.4598 18.5546 33.7371 17.9932C42.8958 25.2759 52.8718 31.4266 62.4291 38.1599C62.4291 38.1599 58.1771 39.2519 44.7931 42.7852C45.1331 40.5532 46.0158 36.0919 42.8198 34.4066C41.8264 33.9066 40.6744 34.2186 40.2611 35.8519C36.0078 34.0359 32.6517 39.6386 41.5117 43.6399C38.0237 44.5559 34.5371 45.4759 31.0451 46.3666C33.0171 34.9159 24.2771 32.5573 23.4838 40.1359C22.7331 39.7306 22.2651 39.4853 21.3918 39.2386C23.5771 35.4666 25.4544 31.5292 27.4478 27.6546ZM26.2038 19.7332C27.1344 20.6106 28.5638 19.5586 27.9584 18.4133C27.7891 17.5066 27.6384 16.2159 27.9251 15.3426C31.0198 17.1386 31.7571 23.7332 32.0691 27.2586C19.6611 23.4279 18.9878 12.7839 26.2038 19.7332ZM52.3811 60.7586C49.5984 59.7706 44.3678 55.8892 44.7944 54.2852C44.7958 54.2839 44.7971 54.2826 44.7971 54.2826C45.3304 53.7212 47.5824 53.9466 48.3491 54.0426C48.8558 54.1133 49.3078 54.2706 49.7331 54.0133C50.2784 53.7013 50.5184 52.9413 49.9638 52.3466C49.6798 50.8359 49.9438 47.4679 52.6904 49.2719C54.3184 50.6813 54.9504 54.1692 55.4211 55.5332C54.4491 57.2986 53.4438 59.0466 52.3811 60.7586ZM41.0131 38.5413C41.7477 38.6519 42.2598 38.0812 42.2531 37.4959C42.2518 37.2506 42.2584 37.0039 42.2771 36.7572C43.2584 37.9079 43.0971 39.4426 42.9104 40.9559C42.9117 40.9439 42.9131 40.9319 42.9158 40.9199C42.8744 41.2212 42.8304 41.4972 42.7838 41.7986C37.6398 39.5266 37.2517 37.0666 39.4117 37.8386C40.0091 38.1159 40.5024 38.5973 41.0131 38.5413ZM15.0757 55.4812C21.2464 60.0172 28.7051 62.3652 36.2344 65.3012C31.3838 71.9546 27.7731 80.3239 24.0784 88.3066C21.2357 77.3226 18.2024 66.3866 15.0757 55.4812ZM47.4411 67.8746C33.2371 60.7906 23.0478 59.4479 14.9571 52.6413C16.2398 52.2679 17.5571 52.0146 18.8731 51.7612C19.6744 51.6092 22.9358 51.0932 23.3478 50.4332C24.6998 51.1799 26.3144 51.9572 27.7664 52.4279C28.2358 52.5826 28.7318 52.3119 28.9651 51.8932C30.2158 51.8772 30.1544 50.5572 30.6184 48.5172C30.8411 48.5052 62.5518 40.2786 62.9131 40.1892C60.9371 44.6292 59.6571 47.5439 56.8678 52.8413C55.9758 49.9599 55.0344 48.0079 53.1784 47.0826C50.1437 45.5359 47.4518 47.6653 47.7291 51.8119C38.6624 51.1386 43.0758 59.3332 51.1918 62.6012C49.4398 65.2826 48.4464 66.6053 47.4411 67.8746ZM72.8518 74.4906C67.8278 69.4706 61.7118 65.5293 56.1611 61.3093C56.1744 61.3213 56.1904 61.3333 56.2051 61.3453C56.1771 61.3253 56.0198 61.2026 55.9931 61.1812C55.9931 61.1826 55.9944 61.1839 55.9958 61.1839C55.7051 60.9599 55.4144 60.7333 55.1238 60.5053C58.8904 54.3493 61.5477 48.9519 64.6077 42.4386C67.3877 54.2279 69.6718 64.4959 72.8518 74.4906ZM65.7224 38.0319C65.6824 37.8666 65.5944 37.7306 65.4864 37.6119C65.3958 37.4973 65.2838 37.3999 65.1558 37.3106C55.8624 30.6986 46.0504 24.8519 36.9651 17.9413C36.9798 17.9506 36.9931 17.9613 37.0077 17.9719C36.0211 17.2213 35.0558 16.4546 34.0931 15.6826C33.2798 15.0199 32.3731 15.5573 32.3451 16.4119C32.0691 16.6613 32.1438 16.6892 31.9864 17.0146C28.9304 11.2866 25.7077 12.5292 25.6091 16.3919C24.3824 15.5692 23.0011 14.8026 21.5358 15.1932C19.2598 15.7999 16.5504 20.9146 25.6651 26.6239C19.0118 39.5132 19.1558 39.0959 19.1558 39.0959C17.2904 39.4612 16.3877 41.1386 16.4784 42.9266C16.2971 43.0119 16.1344 43.1319 16.0437 43.3199C15.3691 44.6972 14.5797 46.0146 13.8384 47.3532C13.4184 48.0986 11.9171 50.9639 11.9104 51.8186C11.8797 51.9732 11.8744 52.1346 11.9211 52.2959C23.3064 91.6959 21.8864 91.7746 23.6171 91.6986C26.7784 93.5652 73.4944 78.9679 74.7464 78.0773C75.5877 78.1426 76.1291 77.3186 75.9131 76.6786C71.6664 64.0279 68.8491 50.9826 65.7224 38.0319Z" fill="black"/>
<path d="M30.5875 85.0985C30.0782 86.0078 31.0289 86.9732 31.7849 86.6652C35.4009 85.2251 37.3862 85.8665 36.9342 84.1732C36.8609 83.9025 36.6809 83.6651 36.4395 83.5198C35.7009 83.1051 31.0155 84.3598 30.5875 85.0985Z" fill="black"/>
<path d="M42.3768 82.0166C41.9461 82.1953 41.5515 82.2806 41.3275 82.6673C40.8275 83.5286 41.7315 84.4833 42.4955 84.1886C43.7675 83.7019 45.2061 83.2473 44.5114 82.0673C43.9834 81.1766 43.2848 81.6286 42.3768 82.0166Z" fill="black"/>
<path d="M62.0712 75.6388C61.2005 75.8708 53.2659 78.1655 52.8152 78.9428C52.3272 79.7868 53.1979 80.7508 53.9779 80.4655C63.4819 76.9628 65.3112 77.7521 64.8499 76.0228C64.5299 74.8255 63.2645 75.3201 62.0712 75.6388Z" fill="black"/>
<path d="M65.5592 60.0148C65.9992 61.6641 66.1979 63.6615 67.5685 63.2961C68.9592 62.9255 68.1045 61.3548 67.6019 59.4708C67.2419 58.1255 65.2005 58.6695 65.5592 60.0148Z" fill="black"/>
<path d="M24.5406 75.6412C23.4753 72.3065 22.3033 68.9999 21.3566 65.6279C20.9833 64.2825 18.9859 64.8625 19.3459 66.1639C20.2926 69.5359 21.4499 72.8465 22.5246 76.1785C22.9713 77.5719 24.9379 76.8825 24.5406 75.6412Z" fill="black"/>
</svg>
