<svg width="195" height="54" viewBox="0 0 195 54" fill="none" xmlns="http://www.w3.org/2000/svg">
<path d="M100.369 12.6201C100.385 12.5868 100.398 12.5508 100.413 12.5148C100.402 12.5388 100.379 12.5961 100.369 12.6201Z" fill="black"/>
<path d="M96.4587 34.1037C93.245 29.7504 73.7864 6.66237 83.1437 2.19837C83.6352 2.0237 83.9584 1.97837 84.5585 2.02904C85.4247 2.17304 86.409 2.52237 87.912 3.6277C91.9186 6.70103 95.6414 12.385 96.9746 15.357C97.1566 15.7677 97.2027 16.1024 97.5964 16.329C97.83 16.465 98.1219 16.5064 98.3812 16.433C98.5849 16.3797 98.7587 16.2397 98.8985 16.073C99.4049 15.8957 99.4674 15.593 99.5502 15.1624C99.5502 15.1624 100.04 11.7624 103.914 6.73436C104.895 5.49169 105.979 4.31702 107.231 3.33302C107.817 2.89702 108.436 2.50771 109.108 2.2117C109.482 2.06904 109.858 1.95704 110.252 1.8957C110.503 1.87304 110.75 1.87036 110.998 1.88903C111.243 1.92903 111.478 1.9917 111.706 2.0757C111.953 2.18903 112.185 2.32636 112.408 2.48369C112.698 2.72369 112.963 2.99037 113.205 3.28104C114.031 4.38104 114.482 5.44103 114.703 6.84237C115.959 17.8944 97.6386 32.7704 96.4587 34.1037ZM112.572 0.411701C112.101 0.207703 111.639 0.0836983 111.13 0.0263634C110.978 0.00769806 110.827 -0.000312805 110.678 -0.000312805C110.348 -0.000312805 110.018 0.0383606 109.681 0.0890274C108.727 0.239693 107.81 0.687695 106.999 1.18769C103.335 3.44503 99.5515 8.98504 98.1178 13.0957C95.9061 9.01704 89.7367 0.287689 84.2693 0.0530243C83.3691 0.0183563 82.454 0.281025 81.6923 0.75169C71.3236 7.17969 90.6817 29.4744 95.0766 35.5477C95.5721 36.2344 96.3854 36.1597 96.7669 35.565C97.1403 35.753 97.5924 35.6877 97.9128 35.401C104.971 29.1504 115.642 18.3157 116.603 9.08903C117.04 4.83969 114.803 1.39837 112.572 0.411701Z" fill="black"/>
<path d="M70.1288 36.3533C69.3441 37.1227 70.2483 37.8373 70.9719 38.6133C71.7825 39.492 73.2882 38.2707 72.3554 37.26C72.0744 36.9573 71.7934 36.6547 71.5123 36.3533C71.1525 35.964 70.4954 35.9933 70.1288 36.3533C83.7058 36.3533 56.5518 36.3533 70.1288 36.3533Z" fill="black"/>
<path d="M56.1825 14.7932C66.9327 15.2932 74.802 22.6132 73.4443 21.4812C76.7 23.9545 79.6178 26.7945 82.4228 29.7092C71.105 26.6772 62.0627 24.8052 56.1825 14.7932ZM86.2365 30.5745C79.7834 23.7252 73.1619 17.3692 64.588 14.3972C62.8908 13.8079 55.4574 11.9505 54.4296 13.1505C53.6802 13.2985 53.501 13.9972 53.7847 14.5385C60.4497 27.1465 71.1715 29.3012 84.5394 32.6612C85.5984 32.9652 86.1619 32.5959 86.337 31.9705C86.3397 31.9599 86.337 31.9505 86.3397 31.9412C86.6411 31.5212 86.6018 30.9599 86.2365 30.5745Z" fill="black"/>
<path d="M73.5015 21.527C73.534 21.5497 73.5667 21.575 73.5979 21.5977C73.5612 21.5697 73.5422 21.555 73.5015 21.527Z" fill="black"/>
<path d="M71.9546 41.3266C72.0795 40.9586 72.0375 40.628 71.7306 40.3026C72.681 39.9733 73.6382 39.6586 74.5981 39.356C73.5934 40.0493 74.165 39.6 71.9546 41.3266ZM65.5273 46.2853C66.1301 45.144 66.6338 43.9466 67.0751 42.74C67.1728 42.4733 67.1144 42.1906 66.9691 41.9573C67.963 41.6173 68.9555 41.2733 69.9466 40.924C69.6547 41.7626 69.413 42.612 69.2094 43.476C67.8517 44.5666 67.0465 45.236 65.5273 46.2853ZM56.4198 50.4253C58.2473 48.7973 60.9599 45.1506 60.5404 43.8173C62.0122 43.488 63.4649 43.0986 64.8987 42.644C63.5138 46.244 62.3367 47.704 61.1853 48.8106C59.8263 49.456 58.4794 49.9853 56.4198 50.4253ZM48.0523 50.472C51.3189 48.7693 53.4111 46.0146 53.718 44.704C55.3513 44.672 56.8203 44.4986 58.4754 44.224C57.601 46.528 55.4395 49.1626 52.4051 50.8533C50.4201 50.8733 49.3081 50.708 48.0523 50.472ZM40.6854 48.0186C42.9188 47.4733 46.8697 45.416 47.2621 44.0826C48.5465 44.344 49.1412 44.5146 51.5022 44.6466C50.1513 46.9946 47.5567 48.964 44.7395 49.6373C42.4232 48.9053 42.0431 48.6626 40.6854 48.0186ZM33.7597 43.9613C35.9945 43.7573 38.0161 43.2573 40.031 41.7893C41.6561 42.4853 43.3207 43.0853 45.0232 43.56C43.06 45.288 40.5496 46.3293 37.5369 46.3666C36.2443 45.6173 34.9844 44.8173 33.7597 43.9613ZM21.9898 33.8533C25.5253 34.5946 28.5502 36.028 31.7789 37.688C29.9921 38.16 28.1144 38.076 26.2055 37.852C24.769 36.5506 23.3665 35.216 21.9898 33.8533ZM30.5094 29.9653C30.5583 30.092 30.6316 30.208 30.7361 30.3066C32.8895 32.3186 34.0014 34.544 35.3197 37.4226C34.2553 36.8666 33.1868 36.3146 32.1156 35.7693C32.5134 34.6946 28.8544 30.7333 27.98 29.94C28.8231 29.9013 29.6676 29.908 30.5094 29.9653ZM38.0447 38.808C38.0365 38.176 35.6687 32.9346 33.5778 30.4026C34.9939 30.688 36.3855 31.0666 37.7555 31.52C37.5029 31.964 37.598 32.3106 37.9089 32.7013C38.8416 33.8213 39.8368 35.7573 40.4437 37.1586C40.3718 37.0053 40.7329 37.7653 41.6724 40.456C40.885 40.1453 40.0378 39.7946 38.0447 38.808ZM21.0435 31.8026C22.2329 31.1653 23.391 30.712 25.2836 30.308C26.3616 31.0626 27.8021 32.4346 29.2508 34.396C26.4892 33.1466 24.063 32.22 21.0435 31.8026ZM31.2236 42.0853C30.3139 41.3746 29.4137 40.6546 28.5367 39.9093C30.6302 39.9666 32.1834 39.7893 34.1019 38.8933C37.5246 40.6853 36.9123 40.332 37.8356 40.7786C35.7433 41.9053 33.6118 42.0626 31.2236 42.0853ZM43.1415 33.672C43.1971 34.148 43.8298 34.72 44.2222 35.2026C46.2167 37.808 47.0109 40.0666 47.5214 42.2506C46.3131 41.996 45.1251 41.6573 43.952 41.2733C44.2032 40.1706 41.2095 33.8893 40.1627 32.3906C41.0615 32.7453 40.7424 32.5733 43.1415 33.672ZM49.6544 42.62C49.262 40.208 48.1785 37.4266 46.6023 35.12C47.5296 35.464 48.4691 35.7733 49.4249 36.0373C49.3434 36.2906 49.3652 36.6293 49.5186 36.832C51.7615 39.8333 51.8077 41.464 52.4662 42.7973C51.5198 42.7786 50.602 42.732 49.6544 42.62ZM54.4118 36.9973C54.3262 37.2546 54.3493 37.592 54.5027 37.7933C56.3085 40.1306 56.3275 41.2173 57.0335 42.552C56.5108 42.628 55.5251 42.7253 54.3059 42.776C54.777 41.7266 52.4526 37.5533 51.8118 36.5946C52.6739 36.7586 53.5401 36.8973 54.4118 36.9973ZM63.9089 40.9346C63.2178 39.6186 62.3665 38.3946 61.4175 37.2493C62.2402 37.224 63.0617 37.1853 63.8831 37.136C63.932 37.2893 64.0053 37.4346 64.1315 37.5493C64.9543 38.292 65.4458 38.9213 65.9712 39.8933C66.0337 40.0093 66.1247 40.1013 66.2238 40.1786C65.4567 40.4453 64.6841 40.6933 63.9089 40.9346ZM58.9465 42.2106C59.0211 41.2893 57.1122 38.008 56.5121 37.1786C57.3878 37.2333 58.2649 37.2693 59.1406 37.2773C59.1651 37.7973 59.7855 38.3653 60.1575 38.82C60.8187 39.6826 61.389 40.5906 61.9321 41.5226C60.9464 41.7893 59.9498 42.016 58.9465 42.2106ZM77.4207 36.456C74.4609 37.2293 71.5188 38.2786 67.9182 39.5826C68.0648 38.8266 66.9732 37.5293 66.4627 36.9506C69.7022 36.6866 73.4495 36.2466 77.4207 36.456ZM83.0932 35.1813C69.189 31.6813 62.1235 39.692 42.6853 31.3173C34.5703 27.8186 25.9883 26.172 18.5915 31.0453C18.1855 31.3146 18.0118 31.8026 18.214 32.2493C18.1815 32.5293 18.2589 32.82 18.4693 33.04C22.0455 36.6933 25.7466 40.2626 29.779 43.4293C29.9107 43.7786 30.2365 44.0306 30.6248 44.0693C32.4115 45.432 34.1263 46.6453 36.0991 47.8293C36.2729 48.192 36.5933 48.412 37.1472 48.4226C41.5394 50.908 46.385 52.6693 51.4601 52.86C51.9149 53.2453 52.2815 53.1293 52.7526 52.9C62.6544 52.7386 68.7097 46.4266 74.2614 42.2066C73.3191 42.864 77.7819 39.3093 82.0736 37.8106C82.3791 37.7066 82.6112 37.488 82.7375 37.22C84.0721 37.2933 84.2785 35.4893 83.0932 35.1813Z" fill="black"/>
<path d="M40.3652 36.9771C40.3772 37.0064 40.3892 37.0371 40.4026 37.0664C40.3639 36.9731 40.3652 36.9771 40.3652 36.9771Z" fill="black"/>
<path d="M31.3392 18.3156C32.9834 17.2623 34.5638 18.8076 34.4592 20.4583C34.2814 20.6969 34.2393 20.9343 34.2922 21.2089C32.4118 21.8089 30.6522 20.7329 30.4459 19.7716C30.4146 19.1676 30.8667 18.7036 31.3392 18.3156ZM38.9858 12.3089C39.6402 11.8743 40.0652 11.8476 40.596 12.0236C41.651 12.5489 42.0176 13.7049 41.0862 14.5809C41.0047 14.6569 40.945 14.7489 40.8988 14.8449C40.6055 14.9649 40.5567 15.0769 40.4562 15.2316C38.7197 15.3503 37.7394 13.3783 38.9858 12.3089ZM36.1876 22.3889C39.8574 23.5956 43.807 23.7076 47.6045 23.1649C51.216 25.9956 54.9673 28.3223 59.4219 29.6569C60.7199 30.0423 61.4218 28.0476 59.9949 27.6103C54.154 25.7903 47.5339 21.4809 42.619 15.8156C44.8579 13.4916 42.9109 9.9916 40.076 9.9916C38.4916 9.9916 36.8637 11.0983 36.5202 12.7316C35.9907 15.2396 38.4305 17.7689 41.1636 17.0649C42.4927 18.6156 43.9428 20.0569 45.4838 21.4063C42.4235 21.6303 39.4053 21.4436 36.5053 20.4583C36.7646 15.4756 29.9693 14.3729 28.5424 18.8689C27.4331 22.2716 33.2604 24.8543 36.1876 22.3889Z" fill="black"/>
<path d="M16.0624 41.9316C16.0583 41.9303 16.0529 41.9303 16.0475 41.929C15.9266 41.9156 15.9483 41.9196 16.0624 41.9316Z" fill="black"/>
<path d="M14.6121 51.921C13.2992 51.657 12.6204 50.457 13.4309 49.2783C13.8531 48.8063 14.3338 48.625 14.9746 48.7836C15.0493 49.2063 15.367 49.3277 15.6738 49.677C15.8829 49.9783 15.9399 50.1197 16.001 50.4223C16.0078 50.5383 16.0078 50.653 16.001 50.7676C15.849 51.5183 15.4023 51.9703 14.6121 51.921ZM5.24532 48.0516C4.91404 48.1676 4.69002 48.2143 4.10757 48.1597C3.45859 48.041 3.1436 47.8997 2.77973 47.661C2.46203 47.3997 2.32219 47.2316 2.13482 46.8676C1.4261 44.989 3.02954 42.3823 5.43811 43.5423C5.42317 43.729 5.46391 43.917 5.57931 44.0757C5.98934 44.645 6.15633 45.077 6.26902 45.6983C6.29889 45.9797 6.30025 46.257 6.2731 46.5383C6.13325 47.2503 5.90652 47.7276 5.24532 48.0516ZM5.91466 41.6797C1.61482 39.9877 -1.40064 45.097 0.667139 48.2156C1.25638 49.101 2.18913 49.653 3.20333 49.9343C3.8496 50.1116 4.53387 50.153 5.19643 50.049C7.96343 49.6276 9.33608 46.125 7.27916 43.0943C11.188 40.8263 17.3411 42.1596 15.8435 41.901C17.5868 42.1343 19.3003 42.533 20.977 43.0343C18.8386 43.8863 16.9446 44.8757 15.181 46.865C13.621 46.6063 12.2266 47.325 11.5315 48.6503C11.3509 48.9876 11.2341 49.353 11.1758 49.7223C11.1065 50.165 11.1282 50.5557 11.1975 50.993C11.2559 51.373 11.431 51.749 11.6265 52.077C11.86 52.4677 12.194 52.785 12.5606 53.061C13.2707 53.597 14.1994 53.9263 15.1063 53.817C15.9332 53.7223 16.6867 53.3317 17.2012 52.681C18.3295 51.245 18.1815 49.3223 16.7125 48.0103C17.9969 46.6263 19.4252 45.7436 21.4522 44.885C21.9532 44.6836 23.2254 44.3196 23.4657 43.9023C23.4711 43.8943 23.4711 43.8837 23.4765 43.8743C24.1744 44.137 24.245 44.1397 25.008 44.4743C26.0304 44.9263 26.7079 44.0943 26.5097 43.3437C26.1078 42.0103 12.8837 37.1637 5.91466 41.6797Z" fill="black"/>
<path d="M112.025 29.7092C114.828 26.7945 117.747 23.9545 121.003 21.4812C119.644 22.6132 127.513 15.2932 138.265 14.7932C132.385 24.8052 123.342 26.6772 112.025 29.7092ZM108.108 31.9412C108.11 31.9505 108.106 31.9599 108.109 31.9705C108.285 32.5959 108.849 32.9652 109.907 32.6612C123.276 29.3012 133.998 27.1465 140.663 14.5385C140.946 13.9972 140.767 13.2985 140.018 13.1505C138.989 11.9505 131.556 13.8079 129.861 14.3972C121.284 17.3692 114.663 23.7252 108.209 30.5745C107.846 30.9599 107.806 31.5212 108.108 31.9412Z" fill="black"/>
<path d="M120.945 21.527C120.913 21.5497 120.881 21.575 120.85 21.5977C120.886 21.5697 120.905 21.555 120.945 21.527Z" fill="black"/>
<path d="M119.849 39.356C120.809 39.6586 121.766 39.9733 122.716 40.3026C122.41 40.628 122.366 40.9586 122.492 41.3266C120.282 39.6 120.854 40.0493 119.849 39.356ZM125.238 43.476C125.034 42.612 124.791 41.7626 124.501 40.924C125.492 41.2733 126.484 41.6173 127.478 41.9573C127.331 42.1906 127.273 42.4733 127.372 42.74C127.813 43.9466 128.317 45.144 128.92 46.2853C127.401 45.236 126.595 44.5666 125.238 43.476ZM133.262 48.8106C132.112 47.704 130.933 46.244 129.547 42.644C130.982 43.0986 132.434 43.488 133.907 43.8173C133.487 45.1506 136.201 48.7973 138.026 50.4253C135.968 49.9853 134.619 49.456 133.262 48.8106ZM142.042 50.8533C139.008 49.1626 136.846 46.528 135.973 44.224C137.627 44.4986 139.094 44.672 140.729 44.704C141.035 46.0146 143.127 48.7693 146.395 50.472C145.14 50.708 144.026 50.8733 142.042 50.8533ZM149.708 49.6373C146.89 48.964 144.296 46.9946 142.944 44.6466C145.307 44.5146 145.901 44.344 147.185 44.0826C147.577 45.416 151.528 47.4733 153.76 48.0186C152.403 48.6626 152.024 48.9053 149.708 49.6373ZM156.91 46.3666C153.897 46.3293 151.387 45.288 149.424 43.56C151.128 43.0853 152.791 42.4853 154.417 41.7893C156.431 43.2573 158.451 43.7573 160.687 43.9613C159.463 44.8173 158.203 45.6173 156.91 46.3666ZM168.242 37.852C166.333 38.076 164.455 38.16 162.668 37.688C165.897 36.028 168.922 34.5946 172.457 33.8533C171.081 35.216 169.678 36.5506 168.242 37.852ZM166.467 29.94C165.593 30.7333 161.934 34.6946 162.332 35.7693C161.26 36.3146 160.192 36.8666 159.127 37.4226C160.446 34.544 161.556 32.3186 163.71 30.3066C163.814 30.208 163.889 30.092 163.938 29.9653C164.779 29.908 165.623 29.9013 166.467 29.94ZM152.775 40.456C153.716 37.7653 154.077 37.0053 154.003 37.1586C154.609 35.7573 155.607 33.8213 156.538 32.7013C156.851 32.3106 156.944 31.964 156.692 31.52C158.06 31.0666 159.453 30.688 160.869 30.4026C158.778 32.9346 156.411 38.176 156.402 38.808C154.409 39.7946 153.562 40.1453 152.775 40.456ZM165.196 34.396C166.645 32.4346 168.085 31.0626 169.164 30.308C171.056 30.712 172.214 31.1653 173.404 31.8026C170.384 32.22 167.958 33.1466 165.196 34.396ZM156.612 40.7786C157.535 40.332 156.921 40.6853 160.345 38.8933C162.264 39.7893 163.817 39.9666 165.91 39.9093C165.033 40.6546 164.133 41.3746 163.224 42.0853C160.835 42.0626 158.704 41.9053 156.612 40.7786ZM154.284 32.3906C153.236 33.8893 150.244 40.1706 150.495 41.2733C149.322 41.6573 148.134 41.996 146.926 42.2506C147.436 40.0666 148.23 37.808 150.225 35.2026C150.619 34.72 151.25 34.148 151.307 33.672C153.703 32.5733 153.386 32.7453 154.284 32.3906ZM141.981 42.7973C142.639 41.464 142.686 39.8333 144.929 36.832C145.083 36.6293 145.104 36.2906 145.022 36.0373C145.978 35.7733 146.918 35.464 147.845 35.12C146.27 37.4266 145.185 40.208 144.793 42.62C143.845 42.732 142.927 42.7786 141.981 42.7973ZM142.635 36.5946C141.995 37.5533 139.669 41.7266 140.141 42.776C138.922 42.7253 137.936 42.628 137.412 42.552C138.12 41.2173 138.139 40.1306 139.944 37.7933C140.098 37.592 140.121 37.2546 140.035 36.9973C140.907 36.8973 141.775 36.7586 142.635 36.5946ZM128.223 40.1786C128.322 40.1013 128.412 40.0093 128.476 39.8933C129.001 38.9213 129.493 38.292 130.317 37.5493C130.442 37.4346 130.516 37.2893 130.564 37.136C131.385 37.1853 132.207 37.224 133.03 37.2493C132.081 38.3946 131.229 39.6186 130.538 40.9346C129.763 40.6933 128.99 40.4453 128.223 40.1786ZM132.515 41.5226C133.057 40.5906 133.628 39.6826 134.288 38.82C134.662 38.3653 135.282 37.7973 135.306 37.2773C136.182 37.2693 137.059 37.2333 137.936 37.1786C137.335 38.008 135.426 41.2893 135.501 42.2106C134.497 42.016 133.501 41.7893 132.515 41.5226ZM127.984 36.9506C127.474 37.5293 126.381 38.8266 126.529 39.5826C122.928 38.2786 119.985 37.2293 117.025 36.456C120.998 36.2466 124.746 36.6866 127.984 36.9506ZM111.708 37.22C111.835 37.488 112.068 37.7066 112.374 37.8106C116.665 39.3093 121.128 42.864 120.186 42.2066C125.737 46.4266 131.793 52.7386 141.693 52.9C142.166 53.1293 142.532 53.2453 142.987 52.86C148.062 52.6693 152.908 50.908 157.3 48.4226C157.854 48.412 158.174 48.192 158.348 47.8293C160.321 46.6453 162.036 45.432 163.822 44.0693C164.211 44.0306 164.536 43.7786 164.667 43.4293C168.701 40.2626 172.402 36.6933 175.978 33.04C176.188 32.82 176.266 32.5293 176.233 32.2493C176.434 31.8026 176.262 31.3146 175.857 31.0453C168.459 26.172 159.877 27.8186 151.762 31.3173C132.324 39.692 125.258 31.6813 111.355 35.1813C110.169 35.4893 110.375 37.2933 111.708 37.22Z" fill="black"/>
<path d="M154.081 36.9771C154.071 37.0064 154.057 37.0371 154.044 37.0664C154.081 36.9731 154.081 36.9771 154.081 36.9771Z" fill="black"/>
<path d="M164.002 19.7716C163.795 20.7329 162.036 21.8089 160.155 21.2089C160.208 20.9343 160.166 20.6969 159.99 20.4583C159.885 18.8076 161.464 17.2623 163.108 18.3156C163.582 18.7036 164.033 19.1676 164.002 19.7716ZM153.99 15.2316C153.891 15.0769 153.842 14.9649 153.549 14.8449C153.502 14.7489 153.443 14.6569 153.36 14.5809C152.43 13.7049 152.795 12.5489 153.853 12.0236C154.381 11.8476 154.807 11.8743 155.462 12.3089C156.708 13.3783 155.726 15.3503 153.99 15.2316ZM165.904 18.8689C164.478 14.3729 157.683 15.4756 157.942 20.4583C155.041 21.4436 152.024 21.6303 148.964 21.4063C150.505 20.0569 151.953 18.6156 153.285 17.0649C156.017 17.7689 158.457 15.2396 157.926 12.7316C157.585 11.0983 155.954 9.9916 154.371 9.9916C151.535 9.9916 149.59 13.4916 151.827 15.8156C146.914 21.4809 140.292 25.7903 134.451 27.6103C133.026 28.0476 133.728 30.0423 135.024 29.6569C139.481 28.3223 143.23 25.9956 146.842 23.1649C150.64 23.7076 154.59 23.5956 158.26 22.3889C161.187 24.8543 167.014 22.2716 165.904 18.8689Z" fill="black"/>
<path d="M178.385 41.9316C178.389 41.9303 178.394 41.9303 178.4 41.929C178.521 41.9156 178.499 41.9196 178.385 41.9316Z" fill="black"/>
<path d="M178.446 50.7676C178.439 50.653 178.439 50.5383 178.446 50.4223C178.508 50.1197 178.564 49.9783 178.773 49.677C179.08 49.3277 179.398 49.2063 179.472 48.7836C180.112 48.625 180.594 48.8063 181.016 49.2783C181.827 50.457 181.148 51.657 179.835 51.921C179.045 51.9703 178.597 51.5183 178.446 50.7676ZM188.174 46.5383C188.145 46.257 188.147 45.9797 188.178 45.6983C188.291 45.077 188.458 44.645 188.869 44.0757C188.983 43.917 189.025 43.729 189.009 43.5423C191.417 42.3823 193.021 44.989 192.312 46.8676C192.125 47.2316 191.985 47.3997 191.666 47.661C191.303 47.8997 190.988 48.041 190.341 48.1597C189.757 48.2143 189.533 48.1676 189.202 48.0516C188.539 47.7276 188.312 47.2503 188.174 46.5383ZM167.939 43.3437C167.739 44.0943 168.417 44.9263 169.439 44.4743C170.202 44.1397 170.271 44.137 170.97 43.8743C170.976 43.8837 170.976 43.8943 170.981 43.9023C171.222 44.3196 172.494 44.6836 172.995 44.885C175.02 45.7436 176.45 46.6263 177.735 48.0103C176.264 49.3223 176.118 51.245 177.246 52.681C177.76 53.3317 178.514 53.7223 179.341 53.817C180.248 53.9263 181.176 53.597 181.886 53.061C182.252 52.785 182.587 52.4677 182.819 52.077C183.016 51.749 183.191 51.373 183.25 50.993C183.319 50.5557 183.339 50.165 183.27 49.7223C183.213 49.353 183.096 48.9876 182.916 48.6503C182.22 47.325 180.826 46.6063 179.265 46.865C177.502 44.8757 175.608 43.8863 173.47 43.0343C175.147 42.533 176.86 42.1343 178.603 41.901C177.105 42.1596 183.26 40.8263 187.168 43.0943C185.111 46.125 186.484 49.6276 189.251 50.049C189.913 50.153 190.597 50.1116 191.245 49.9343C192.258 49.653 193.191 49.101 193.78 48.2156C195.846 45.097 192.832 39.9877 188.532 41.6797C181.563 37.1637 168.339 42.0103 167.939 43.3437Z" fill="black"/>
</svg>
