<svg width="285" height="241" viewBox="0 0 285 241" fill="none" xmlns="http://www.w3.org/2000/svg">
<path d="M66.5659 20.0107V92.5273H121.633V20.0107H66.5659ZM117.814 87.4712H70.4134V25.074H117.814V87.4712Z" fill="#BEBEBE"/>
<path opacity="0.5" d="M66.5659 20.0107V92.5273H121.633V20.0107H66.5659ZM117.814 87.4712H70.4134V25.074H117.814V87.4712Z" fill="white"/>
<path d="M237.094 59.6807V113.231H277.772V59.6807H237.094ZM274.933 109.491H239.954V63.4495H274.954L274.933 109.491Z" fill="#BEBEBE"/>
<path opacity="0.5" d="M237.094 59.6807V113.231H277.772V59.6807H237.094ZM274.933 109.491H239.954V63.4495H274.954L274.933 109.491Z" fill="white"/>
<path d="M262.425 155.99H259.393H122.462H119.43V162.055H122.462V223.701H259.393V162.055H262.425V155.99Z" fill="#BEBEBE"/>
<path opacity="0.5" d="M262.425 155.99H259.393H122.462H119.43V162.055H122.462V223.701H259.393V162.055H262.425V155.99Z" fill="white"/>
<path d="M126.124 188.208H163.469V168.248H126.124V188.208ZM126.882 169.006H162.718V187.45H126.889L126.882 169.006Z" fill="white"/>
<path d="M172.509 188.208H209.854V168.248H172.509V188.208ZM173.267 169.006H209.096V187.45H173.267V169.006Z" fill="white"/>
<path d="M218.887 168.248V188.208H256.232V168.248H218.887ZM255.474 187.45H219.645V169.006H255.474V187.45Z" fill="white"/>
<path d="M126.124 214.984H163.469V195.038H126.124V214.984ZM126.882 195.753H162.718V214.197H126.889L126.882 195.753Z" fill="white"/>
<path d="M172.509 214.984H209.854V195.038H172.509V214.984ZM173.267 195.753H209.096V214.197H173.267V195.753Z" fill="white"/>
<path d="M218.887 214.984H256.232V195.038H218.887V214.984ZM219.645 195.753H255.474V214.197H219.645V195.753Z" fill="white"/>
<path d="M145.197 180.756C148.546 180.756 151.261 179.738 151.261 178.482C151.261 177.226 148.546 176.208 145.197 176.208C141.847 176.208 139.132 177.226 139.132 178.482C139.132 179.738 141.847 180.756 145.197 180.756Z" fill="white"/>
<path d="M191.353 180.756C194.702 180.756 197.417 179.738 197.417 178.482C197.417 177.226 194.702 176.208 191.353 176.208C188.003 176.208 185.288 177.226 185.288 178.482C185.288 179.738 188.003 180.756 191.353 180.756Z" fill="white"/>
<path d="M238.854 180.756C242.203 180.756 244.918 179.738 244.918 178.482C244.918 177.226 242.203 176.208 238.854 176.208C235.504 176.208 232.789 177.226 232.789 178.482C232.789 179.738 235.504 180.756 238.854 180.756Z" fill="white"/>
<path d="M145.197 202.983C141.85 202.983 139.132 204.006 139.132 205.258C139.132 206.509 141.85 207.532 145.197 207.532C148.544 207.532 151.261 206.516 151.261 205.258C151.261 203.999 148.544 202.983 145.197 202.983Z" fill="white"/>
<path d="M191.324 202.983C187.977 202.983 185.26 204.006 185.26 205.258C185.26 206.509 187.977 207.532 191.324 207.532C194.671 207.532 197.389 206.516 197.389 205.258C197.389 203.999 194.707 202.983 191.324 202.983Z" fill="white"/>
<path d="M238.854 202.983C235.499 202.983 232.789 204.006 232.789 205.258C232.789 206.509 235.499 207.532 238.854 207.532C242.208 207.532 244.918 206.516 244.918 205.258C244.918 203.999 242.2 202.983 238.854 202.983Z" fill="white"/>
<path d="M102.645 150.698C99.8777 154.796 96.0302 160.124 93.9777 164.394C94.7644 161.576 95.5225 158.915 96.2233 156.527C97.2746 154.467 100.085 149.247 103.332 145.8C107.458 141.387 109.225 138.548 107.001 138.298C105.463 138.133 100.958 144.133 98.1328 150.09C98.7478 148.052 99.2341 146.515 99.5631 145.585C99.6989 145.177 99.8277 144.72 99.9564 144.241C102.859 140.129 105.496 135.837 107.852 131.389C112.021 123.601 113.366 116.249 110.584 119.41C108.023 122.321 103.568 136.789 100.035 143.604C100.328 142.431 100.614 141.13 100.865 139.857C101.365 138.612 102.023 137.354 102.395 136.216C102.974 134.457 103.482 132.641 103.89 130.874C104.569 128.064 104.91 125.183 104.905 122.292C104.977 118.897 104.052 115.556 102.245 112.681C101.766 111.966 98.8408 107.582 97.954 109.82C97.8361 110.19 97.814 110.584 97.8896 110.964C98.3116 114.69 99.6632 118.116 100.5 121.742C101.751 127.17 100.922 136.288 100.5 140.164C100.335 140.772 100.135 141.537 99.8992 142.417C100.486 135.666 97.5535 127.663 94.843 126.262C91.489 124.531 94.7787 131.325 97.3675 137.253C98.5966 139.85 99.1735 142.708 99.0482 145.578C98.5189 147.53 97.9111 149.719 97.2817 151.936C97.1601 152.243 97.0386 152.543 96.9313 152.844C97.2152 151.398 97.3328 149.925 97.2817 148.453C97.0314 144.577 92.6404 136.81 89.7297 137.911C86.819 139.013 91.7464 143.096 94.3854 147.859C95.7533 150.491 96.2729 153.481 95.8729 156.42C95.8729 156.591 95.8157 156.763 95.7942 156.934C95.4938 157.943 95.1935 158.923 94.9003 159.845C94.1851 161.991 93.5772 164.05 92.9694 166.038C93.7153 163.156 94.0452 160.182 93.9491 157.206C93.5772 151.521 90.2518 146.157 87.477 145.428C84.7022 144.698 89.9729 153.959 91.7679 159.166C92.716 162.214 92.8662 165.454 92.2041 168.577C91.3603 171.395 90.5521 174.17 89.7297 177.116C89.9621 173.266 89.8808 169.403 89.4866 165.566C88.9502 159.244 85.1956 155.204 82.5996 155.375C80.0036 155.547 82.7141 159.13 86.4543 166.818C88.4189 170.854 89.2941 175.334 88.9931 179.812C88.657 181.057 88.3137 182.33 87.9633 183.66C87.5699 185.176 87.2481 186.821 86.9692 188.516C86.5902 187.007 86.0324 184.804 85.3816 182.372C84.6237 179.682 84.0738 176.937 83.7367 174.163C83.3863 170.944 82.5424 166.918 79.3814 165.245C79.167 165.094 78.922 164.992 78.6638 164.946C78.4055 164.901 78.1404 164.912 77.8873 164.98C77.6341 165.049 77.399 165.172 77.1987 165.341C76.9984 165.51 76.8378 165.721 76.7282 165.96C76.4314 166.65 76.3638 167.417 76.5351 168.148C76.954 170.34 77.6761 172.463 78.6806 174.456C78.0581 175.646 77.7737 176.984 77.8582 178.325C77.8582 178.832 77.9082 179.333 77.9368 179.827C77.6579 179.319 77.3933 178.847 77.143 178.396C76.6927 177.637 76.1337 176.948 75.4839 176.351C75.6493 175.166 75.7306 173.971 75.727 172.775C75.727 171.202 73.8891 167.211 72.2299 170.172C71.572 171.352 71.7007 173.683 71.6363 175.228C71.1786 175.65 71.0427 176.523 71.4218 177.903C71.0452 181.486 71.2334 185.106 71.9796 188.63L71.4146 187.629C70.602 183.493 70.1237 179.298 69.9843 175.085C69.7769 168.134 70.8926 162.42 68.9903 160.281C67.088 158.143 66.0438 165.681 66.8448 173.869C67.2286 177.624 68.229 181.289 69.8055 184.718C67.9461 181.378 66.1082 177.974 64.3704 174.706C63.6552 172.947 61.8816 168.212 62.3179 163.407C62.8685 157.342 63.269 152.386 60.9662 148.975C58.6634 145.564 58.1843 147.773 59.3142 154.889C60.0866 159.766 60.9162 166.289 62.3322 170.816C60.9805 168.22 59.7147 165.752 58.5848 163.514C57.9483 161.29 56.4393 155.561 56.4393 150.798C56.4393 144.755 55.7885 141.501 54.0006 142.81C52.7563 143.74 53.5572 151.199 55.5668 157.485C54.6228 155.576 53.9148 154.11 53.5072 153.244C53.3284 152.851 53.1139 152.429 52.8779 151.986C52.2356 147.008 51.2801 142.075 50.0172 137.218C47.743 128.636 43.7096 122.385 43.8312 126.591C43.9527 130.467 50.5679 144.083 52.6347 151.478C52.0483 150.419 51.3689 149.275 50.6823 148.167C50.2032 146.922 49.8241 145.556 49.3164 144.462C48.544 142.789 47.7001 141.137 46.7704 139.542C45.3409 137.022 43.6199 134.68 41.6428 132.562C39.3761 130.032 36.4173 128.222 33.1325 127.356C32.2886 127.155 27.1681 125.925 28.0406 128.214C28.2022 128.564 28.4479 128.869 28.7557 129.101C31.6163 131.532 34.9346 133.113 38.017 135.194C42.6368 138.305 48.2508 145.535 50.5679 148.674C50.8683 149.225 51.2401 149.926 51.6692 150.727C47.4856 145.392 39.8907 141.537 36.9514 142.367C33.3184 143.397 40.3627 146.114 46.2984 148.682C48.9701 149.74 51.342 151.437 53.2068 153.623C54.1508 155.404 55.2021 157.421 56.2534 159.473L56.6181 160.374C55.8385 159.123 54.917 157.967 53.8719 156.927C51.0113 154.26 42.5367 151.585 41.1565 154.374C39.7762 157.163 46.1626 156.791 51.3546 158.465C54.1488 159.435 56.576 161.243 58.3059 163.643L58.5991 164.079C59.0711 165.023 59.5216 165.945 59.9364 166.818C60.9162 168.863 61.8387 170.794 62.7541 172.661C61.335 170.033 59.5428 167.624 57.4334 165.509C53.2926 161.604 47.1924 159.952 44.675 161.311C42.1577 162.67 52.32 165.845 57.1616 168.463C59.9351 170.033 62.2595 172.289 63.9127 175.014C65.2142 177.652 66.523 180.227 67.9318 182.945C65.4758 179.971 62.7801 177.204 59.8721 174.67C55.1663 170.379 49.6597 170.029 47.8861 171.91C46.1125 173.791 50.525 174.584 58.4918 177.631C62.6836 179.24 66.3818 181.918 69.2191 185.398C69.8198 186.535 70.442 187.7 71.0928 188.909C71.808 190.289 72.7162 191.72 73.6745 193.143C72.3729 192.299 70.4635 191.069 68.3252 189.731C65.9365 188.282 63.6627 186.652 61.5241 184.854C59.0639 182.709 55.7027 180.377 52.2271 181.278C51.9686 181.317 51.7217 181.412 51.5038 181.556C51.286 181.7 51.1024 181.891 50.966 182.114C50.8297 182.337 50.7438 182.587 50.7146 182.847C50.6853 183.106 50.7134 183.369 50.7968 183.617C51.0516 184.321 51.5253 184.925 52.1484 185.34C55.4095 187.872 59.7934 189.088 63.5908 190.582C67.0724 191.947 70.639 193.084 74.2681 193.987C75.1692 195.281 76.1132 196.561 77.05 197.777L75.348 197.827C73.3312 197.884 64.2345 193.765 59.6146 192.435C54.9947 191.104 50.6752 193.622 55.5168 196.225C60.3584 198.828 73.5243 198.249 73.5243 198.249L77.3289 198.134C78.2157 199.279 79.0954 200.366 79.9178 201.353H61.8816V206.359H65.4574L68.318 224.209H92.3043L95.1649 206.409H98.7406V201.403H86.8119C86.7146 199.241 86.7744 197.076 86.9907 194.923C87.784 194.111 88.6669 193.391 89.6224 192.778C94.8717 189.152 103.775 188.852 106.135 181.872C106.707 180.184 106.064 178.032 104.047 178.124C102.617 178.189 101.065 179.455 100.164 180.499C97.1601 183.967 94.9003 187.565 90.9955 190.189C90.8239 190.311 88.3566 192.27 87.1409 193.486C87.2696 192.349 87.4412 191.133 87.6629 189.832C88.6047 188.155 89.6835 186.56 90.8883 185.061C94.0778 181.092 98.9409 178.768 102.395 174.985C103.453 173.826 104.848 169.664 101.616 170.694C100.185 171.152 98.4832 173.326 97.3604 174.327C94.1851 177.188 90.924 180.234 88.8501 183.996C88.943 183.624 89.0289 183.281 89.1218 182.88C91.3468 179.3 93.858 175.907 96.6309 172.732C101.222 167.504 105.928 164.093 106.007 161.233C106.085 158.372 100.164 163.163 95.1363 169.714C92.8556 172.719 91.0869 176.081 89.9013 179.662C90.8239 175.95 91.8036 172.21 92.762 168.62C93.4199 166.832 95.3723 162.184 98.9766 158.958C103.511 154.903 107.187 151.557 107.837 147.516C108.488 143.475 106.636 144.727 102.645 150.698ZM77.2431 196.697C76.528 195.774 75.8557 194.766 75.0977 193.665C74.6416 191.798 74.3402 189.896 74.1966 187.979C74.0986 186.338 74.1729 184.692 74.4183 183.066C75.6388 184.578 76.9349 186.026 78.3016 187.407C78.2721 188.837 78.0972 190.261 77.7795 191.655C77.7294 191.863 77.2717 194.973 77.2074 196.697H77.2431ZM81.1336 201.403C80.211 200.423 79.2026 199.257 78.1085 197.827C78.14 196.695 78.2984 195.57 78.5805 194.473C79.0096 192.737 79.6383 191.058 80.4542 189.467C82.1062 191.083 83.3362 192.177 83.3362 192.177L86.1968 194.687C85.968 197.183 85.8393 199.522 85.7606 201.424L81.1336 201.403ZM86.2898 194.251L85.0097 193.121C84.2945 192.478 83.0001 189.989 81.5984 187.128C82.1999 185.92 82.7324 184.678 83.1932 183.409C84.7022 186.22 86.0538 188.416 86.8405 189.581C86.5759 191.105 86.3971 192.678 86.2541 194.215L86.2898 194.251Z" fill="#BEBEBE"/>
<path opacity="0.5" d="M102.645 150.698C99.8777 154.796 96.0302 160.124 93.9777 164.394C94.7644 161.576 95.5225 158.915 96.2233 156.527C97.2746 154.467 100.085 149.247 103.332 145.8C107.458 141.387 109.225 138.548 107.001 138.298C105.463 138.133 100.958 144.133 98.1328 150.09C98.7478 148.052 99.2341 146.515 99.5631 145.585C99.6989 145.177 99.8277 144.72 99.9564 144.241C102.859 140.129 105.496 135.837 107.852 131.389C112.021 123.601 113.366 116.249 110.584 119.41C108.023 122.321 103.568 136.789 100.035 143.604C100.328 142.431 100.614 141.13 100.865 139.857C101.365 138.612 102.023 137.354 102.395 136.216C102.974 134.457 103.482 132.641 103.89 130.874C104.569 128.064 104.91 125.183 104.905 122.292C104.977 118.897 104.052 115.556 102.245 112.681C101.766 111.966 98.8408 107.582 97.954 109.82C97.8361 110.19 97.814 110.584 97.8896 110.964C98.3116 114.69 99.6632 118.116 100.5 121.742C101.751 127.17 100.922 136.288 100.5 140.164C100.335 140.772 100.135 141.537 99.8992 142.417C100.486 135.666 97.5535 127.663 94.843 126.262C91.489 124.531 94.7787 131.325 97.3675 137.253C98.5966 139.85 99.1735 142.708 99.0482 145.578C98.5189 147.53 97.9111 149.719 97.2817 151.936C97.1601 152.243 97.0386 152.543 96.9313 152.844C97.2152 151.398 97.3328 149.925 97.2817 148.453C97.0314 144.577 92.6404 136.81 89.7297 137.911C86.819 139.013 91.7464 143.096 94.3854 147.859C95.7533 150.491 96.2729 153.481 95.8729 156.42C95.8729 156.591 95.8157 156.763 95.7942 156.934C95.4938 157.943 95.1935 158.923 94.9003 159.845C94.1851 161.991 93.5772 164.05 92.9694 166.038C93.7153 163.156 94.0452 160.182 93.9491 157.206C93.5772 151.521 90.2518 146.157 87.477 145.428C84.7022 144.698 89.9729 153.959 91.7679 159.166C92.716 162.214 92.8662 165.454 92.2041 168.577C91.3603 171.395 90.5521 174.17 89.7297 177.116C89.9621 173.266 89.8808 169.403 89.4866 165.566C88.9502 159.244 85.1956 155.204 82.5996 155.375C80.0036 155.547 82.7141 159.13 86.4543 166.818C88.4189 170.854 89.2941 175.334 88.9931 179.812C88.657 181.057 88.3137 182.33 87.9633 183.66C87.5699 185.176 87.2481 186.821 86.9692 188.516C86.5902 187.007 86.0324 184.804 85.3816 182.372C84.6237 179.682 84.0738 176.937 83.7367 174.163C83.3863 170.944 82.5424 166.918 79.3814 165.245C79.167 165.094 78.922 164.992 78.6638 164.946C78.4055 164.901 78.1404 164.912 77.8873 164.98C77.6341 165.049 77.399 165.172 77.1987 165.341C76.9984 165.51 76.8378 165.721 76.7282 165.96C76.4314 166.65 76.3638 167.417 76.5351 168.148C76.954 170.34 77.6761 172.463 78.6806 174.456C78.0581 175.646 77.7737 176.984 77.8582 178.325C77.8582 178.832 77.9082 179.333 77.9368 179.827C77.6579 179.319 77.3933 178.847 77.143 178.396C76.6927 177.637 76.1337 176.948 75.4839 176.351C75.6493 175.166 75.7306 173.971 75.727 172.775C75.727 171.202 73.8891 167.211 72.2299 170.172C71.572 171.352 71.7007 173.683 71.6363 175.228C71.1786 175.65 71.0427 176.523 71.4218 177.903C71.0452 181.486 71.2334 185.106 71.9796 188.63L71.4146 187.629C70.602 183.493 70.1237 179.298 69.9843 175.085C69.7769 168.134 70.8926 162.42 68.9903 160.281C67.088 158.143 66.0438 165.681 66.8448 173.869C67.2286 177.624 68.229 181.289 69.8055 184.718C67.9461 181.378 66.1082 177.974 64.3704 174.706C63.6552 172.947 61.8816 168.212 62.3179 163.407C62.8685 157.342 63.269 152.386 60.9662 148.975C58.6634 145.564 58.1843 147.773 59.3142 154.889C60.0866 159.766 60.9162 166.289 62.3322 170.816C60.9805 168.22 59.7147 165.752 58.5848 163.514C57.9483 161.29 56.4393 155.561 56.4393 150.798C56.4393 144.755 55.7885 141.501 54.0006 142.81C52.7563 143.74 53.5572 151.199 55.5668 157.485C54.6228 155.576 53.9148 154.11 53.5072 153.244C53.3284 152.851 53.1139 152.429 52.8779 151.986C52.2356 147.008 51.2801 142.075 50.0172 137.218C47.743 128.636 43.7096 122.385 43.8312 126.591C43.9527 130.467 50.5679 144.083 52.6347 151.478C52.0483 150.419 51.3689 149.275 50.6823 148.167C50.2032 146.922 49.8241 145.556 49.3164 144.462C48.544 142.789 47.7001 141.137 46.7704 139.542C45.3409 137.022 43.6199 134.68 41.6428 132.562C39.3761 130.032 36.4173 128.222 33.1325 127.356C32.2886 127.155 27.1681 125.925 28.0406 128.214C28.2022 128.564 28.4479 128.869 28.7557 129.101C31.6163 131.532 34.9346 133.113 38.017 135.194C42.6368 138.305 48.2508 145.535 50.5679 148.674C50.8683 149.225 51.2401 149.926 51.6692 150.727C47.4856 145.392 39.8907 141.537 36.9514 142.367C33.3184 143.397 40.3627 146.114 46.2984 148.682C48.9701 149.74 51.342 151.437 53.2068 153.623C54.1508 155.404 55.2021 157.421 56.2534 159.473L56.6181 160.374C55.8385 159.123 54.917 157.967 53.8719 156.927C51.0113 154.26 42.5367 151.585 41.1565 154.374C39.7762 157.163 46.1626 156.791 51.3546 158.465C54.1488 159.435 56.576 161.243 58.3059 163.643L58.5991 164.079C59.0711 165.023 59.5216 165.945 59.9364 166.818C60.9162 168.863 61.8387 170.794 62.7541 172.661C61.335 170.033 59.5428 167.624 57.4334 165.509C53.2926 161.604 47.1924 159.952 44.675 161.311C42.1577 162.67 52.32 165.845 57.1616 168.463C59.9351 170.033 62.2595 172.289 63.9127 175.014C65.2142 177.652 66.523 180.227 67.9318 182.945C65.4758 179.971 62.7801 177.204 59.8721 174.67C55.1663 170.379 49.6597 170.029 47.8861 171.91C46.1125 173.791 50.525 174.584 58.4918 177.631C62.6836 179.24 66.3818 181.918 69.2191 185.398C69.8198 186.535 70.442 187.7 71.0928 188.909C71.808 190.289 72.7162 191.72 73.6745 193.143C72.3729 192.299 70.4635 191.069 68.3252 189.731C65.9365 188.282 63.6627 186.652 61.5241 184.854C59.0639 182.709 55.7027 180.377 52.2271 181.278C51.9686 181.317 51.7217 181.412 51.5038 181.556C51.286 181.7 51.1024 181.891 50.966 182.114C50.8297 182.337 50.7438 182.587 50.7146 182.847C50.6853 183.106 50.7134 183.369 50.7968 183.617C51.0516 184.321 51.5253 184.925 52.1484 185.34C55.4095 187.872 59.7934 189.088 63.5908 190.582C67.0724 191.947 70.639 193.084 74.2681 193.987C75.1692 195.281 76.1132 196.561 77.05 197.777L75.348 197.827C73.3312 197.884 64.2345 193.765 59.6146 192.435C54.9947 191.104 50.6752 193.622 55.5168 196.225C60.3584 198.828 73.5243 198.249 73.5243 198.249L77.3289 198.134C78.2157 199.279 79.0954 200.366 79.9178 201.353H61.8816V206.359H65.4574L68.318 224.209H92.3043L95.1649 206.409H98.7406V201.403H86.8119C86.7146 199.241 86.7744 197.076 86.9907 194.923C87.784 194.111 88.6669 193.391 89.6224 192.778C94.8717 189.152 103.775 188.852 106.135 181.872C106.707 180.184 106.064 178.032 104.047 178.124C102.617 178.189 101.065 179.455 100.164 180.499C97.1601 183.967 94.9003 187.565 90.9955 190.189C90.8239 190.311 88.3566 192.27 87.1409 193.486C87.2696 192.349 87.4412 191.133 87.6629 189.832C88.6047 188.155 89.6835 186.56 90.8883 185.061C94.0778 181.092 98.9409 178.768 102.395 174.985C103.453 173.826 104.848 169.664 101.616 170.694C100.185 171.152 98.4832 173.326 97.3604 174.327C94.1851 177.188 90.924 180.234 88.8501 183.996C88.943 183.624 89.0289 183.281 89.1218 182.88C91.3468 179.3 93.858 175.907 96.6309 172.732C101.222 167.504 105.928 164.093 106.007 161.233C106.085 158.372 100.164 163.163 95.1363 169.714C92.8556 172.719 91.0869 176.081 89.9013 179.662C90.8239 175.95 91.8036 172.21 92.762 168.62C93.4199 166.832 95.3723 162.184 98.9766 158.958C103.511 154.903 107.187 151.557 107.837 147.516C108.488 143.475 106.636 144.727 102.645 150.698ZM77.2431 196.697C76.528 195.774 75.8557 194.766 75.0977 193.665C74.6416 191.798 74.3402 189.896 74.1966 187.979C74.0986 186.338 74.1729 184.692 74.4183 183.066C75.6388 184.578 76.9349 186.026 78.3016 187.407C78.2721 188.837 78.0972 190.261 77.7795 191.655C77.7294 191.863 77.2717 194.973 77.2074 196.697H77.2431ZM81.1336 201.403C80.211 200.423 79.2026 199.257 78.1085 197.827C78.14 196.695 78.2984 195.57 78.5805 194.473C79.0096 192.737 79.6383 191.058 80.4542 189.467C82.1062 191.083 83.3362 192.177 83.3362 192.177L86.1968 194.687C85.968 197.183 85.8393 199.522 85.7606 201.424L81.1336 201.403ZM86.2898 194.251L85.0097 193.121C84.2945 192.478 83.0001 189.989 81.5984 187.128C82.1999 185.92 82.7324 184.678 83.1932 183.409C84.7022 186.22 86.0538 188.416 86.8405 189.581C86.5759 191.105 86.3971 192.678 86.2541 194.215L86.2898 194.251Z" fill="#BEBEBE"/>
<path d="M247.4 239.034C265.497 239.034 280.168 235.884 280.168 231.997C280.168 228.111 265.497 224.96 247.4 224.96C229.302 224.96 214.631 228.111 214.631 231.997C214.631 235.884 229.302 239.034 247.4 239.034Z" fill="#BEBEBE"/>
<g opacity="0.7">
<path d="M247.4 239.034C265.497 239.034 280.168 235.884 280.168 231.997C280.168 228.111 265.497 224.96 247.4 224.96C229.302 224.96 214.631 228.111 214.631 231.997C214.631 235.884 229.302 239.034 247.4 239.034Z" fill="white"/>
</g>
<path d="M216.512 86.0339C216.512 86.0339 216.512 88.444 211.506 84.5035C206.5 80.563 205.592 76.8442 212.6 72.682C217.978 69.4853 226.603 68.341 231.144 73.6618C234.605 77.7167 234.67 84.0243 238.439 87.7861C241.936 91.2903 250.038 92.1699 253.321 99.8292C256.604 107.489 251.133 106.18 253.543 113.846C255.953 121.513 262.303 121.942 258.356 129.58C254.408 137.217 247.414 142.059 236.687 137.239C225.959 132.419 229.02 124.759 222.019 120.161C208.896 111.601 207.151 98.306 216.512 86.0339Z" fill="#263238" stroke="#263238" stroke-width="0.759447" stroke-linecap="round" stroke-linejoin="round"/>
<path d="M218.8 92.6064C217.488 95.7097 217.055 99.1141 217.549 102.447" stroke="white" stroke-width="0.379724" stroke-linecap="round" stroke-linejoin="round"/>
<path d="M221.46 76.5654C222.49 78.5178 224.743 81.3284 229.713 83.9673C238.531 88.6587 241.871 90.0389 241.871 90.0389" stroke="white" stroke-width="0.379724" stroke-linecap="round" stroke-linejoin="round"/>
<path d="M220.646 74.041C220.673 74.3445 220.733 74.6442 220.824 74.9349" stroke="white" stroke-width="0.379724" stroke-linecap="round" stroke-linejoin="round"/>
<path d="M249.866 101.188C250.064 101.77 250.149 102.384 250.116 102.998" stroke="white" stroke-width="0.379724" stroke-linecap="round" stroke-linejoin="round"/>
<path d="M227.897 85.8193C227.897 85.8193 230.536 88.1078 237.158 90.8612C242.028 92.8922 246.899 96.1175 249.023 99.443" stroke="white" stroke-width="0.379724" stroke-linecap="round" stroke-linejoin="round"/>
<path d="M219.214 71.8389C219.214 71.8389 214.431 71.9032 217.377 77.9384" stroke="white" stroke-width="0.379724" stroke-linecap="round" stroke-linejoin="round"/>
<path d="M231.373 88.3799C233.445 91.3184 235.75 94.0855 238.267 96.6542C242.128 100.516 241.578 104.929 240.748 106.859" stroke="white" stroke-width="0.379724" stroke-linecap="round" stroke-linejoin="round"/>
<path d="M245.411 170.551C245.411 170.551 238.846 187 237.752 193.536C236.658 200.073 235.478 208.797 234.004 212.981C232.124 218.309 229.427 221.127 229.649 223.093C229.871 225.06 235.12 230.76 233.153 232.29C231.187 233.821 227.239 226.819 227.432 222.879C227.625 218.938 230.493 207.989 230.936 201.203C231.38 194.416 229.842 184.339 230.715 178.432C231.587 172.525 232.903 167.483 232.903 167.483C232.903 167.483 240.376 163.979 245.411 170.551Z" fill="white" stroke="#263238" stroke-width="0.759447" stroke-linecap="round" stroke-linejoin="round"/>
<path d="M231.616 172.518C231.616 172.518 237.752 180.621 239.283 187.844C240.998 195.242 244.283 202.186 248.916 208.204C253.078 213.46 256.518 223.008 256.518 223.008C256.518 223.008 256.082 230.231 256.954 232.419C257.827 234.607 260.237 232.855 260.458 229.351C260.68 225.847 259.028 221.434 258.134 219.246C257.24 217.058 254.608 204.943 252.413 198.135C250.217 191.326 248.251 183.031 246.499 178.432C244.746 173.834 242.344 168.141 242.344 168.141C242.344 168.141 230.965 167.047 231.616 172.518Z" fill="white" stroke="#263238" stroke-width="0.759447" stroke-linecap="round" stroke-linejoin="round"/>
<path d="M241.907 109.026L241.256 113.625C241.256 113.625 239.955 124.13 239.955 127.856C239.955 131.582 244.961 139.678 246.083 151.285C247.206 162.892 245.426 170.551 245.426 170.551C234.698 168.363 231.63 172.518 231.63 172.518C231.63 172.518 222.219 160.918 220.903 153.473C219.587 146.028 222.877 138.362 223.313 132.455C223.749 126.548 220.03 121.942 216.526 115.155C213.022 108.369 212.807 101.145 216.748 100.488C220.688 99.8296 226.381 100.266 226.381 100.266C226.381 100.266 235.356 100.924 239.297 102.018C243.237 103.112 243.459 105.308 243.459 105.308" fill="#BEBEBE"/>
<path d="M241.907 109.026L241.256 113.625C241.256 113.625 239.955 124.13 239.955 127.856C239.955 131.582 244.961 139.678 246.083 151.285C247.206 162.892 245.426 170.551 245.426 170.551C234.698 168.363 231.63 172.518 231.63 172.518C231.63 172.518 222.219 160.918 220.903 153.473C219.587 146.028 222.877 138.362 223.313 132.455C223.749 126.548 220.03 121.942 216.526 115.155C213.022 108.369 212.807 101.145 216.748 100.488C220.688 99.8296 226.381 100.266 226.381 100.266C226.381 100.266 235.356 100.924 239.297 102.018C243.237 103.112 243.459 105.308 243.459 105.308" stroke="#263238" stroke-width="0.759447" stroke-miterlimit="10" stroke-linecap="round"/>
<path d="M232.481 142.23C232.481 142.23 240.076 153.988 242.765 162.798" stroke="#263238" stroke-width="0.379724" stroke-linecap="round" stroke-linejoin="round"/>
<path d="M230.521 138.312C230.521 138.312 236.643 144.19 238.846 148.595" stroke="#263238" stroke-width="0.379724" stroke-linecap="round" stroke-linejoin="round"/>
<path d="M222.863 96.3466C222.863 96.3466 225.273 101.603 225.273 102.483C225.273 103.362 229.871 107.732 231.402 106.638C232.932 105.543 231.838 102.919 230.744 100.509C229.65 98.0987 227.461 94.1582 227.461 94.1582C226.887 94.8202 226.182 95.3563 225.391 95.7329C224.599 96.1095 223.739 96.3184 222.863 96.3466Z" fill="white" stroke="#263238" stroke-width="0.759447" stroke-miterlimit="10" stroke-linecap="round"/>
<path d="M217.392 77.9385L214.102 85.1615C214.102 85.1615 216.29 91.5121 218.7 94.573C221.111 97.6338 224.422 97.8627 226.145 96.7685C229.535 94.623 227.897 85.8195 227.897 85.8195C227.897 85.8195 218.264 82.0935 217.392 77.9385Z" fill="white" stroke="#263238" stroke-width="0.759447" stroke-miterlimit="10" stroke-linecap="round"/>
<path d="M240.813 102.461C244.327 104.226 247.721 106.218 250.975 108.425C254.994 111.186 265.278 122.149 263.784 124.995C262.289 127.842 244.575 137.868 243.48 137.868C242.386 137.868 241.035 136.438 241.035 136.438C241.035 136.438 239.468 134.257 238.596 134.257C237.723 134.257 239.211 132.211 240.52 131.553C241.828 130.895 243.859 135.537 243.859 135.537C243.859 135.537 254.336 125.153 254.994 122.957C255.652 120.762 239.061 113.374 239.061 113.374" fill="#BEBEBE"/>
<path d="M240.813 102.461C244.327 104.226 247.721 106.218 250.975 108.425C254.994 111.186 265.278 122.149 263.784 124.995C262.289 127.842 244.575 137.868 243.48 137.868C242.386 137.868 241.035 136.438 241.035 136.438C241.035 136.438 239.468 134.257 238.596 134.257C237.723 134.257 239.211 132.211 240.52 131.553C241.828 130.895 243.859 135.537 243.859 135.537C243.859 135.537 254.336 125.153 254.994 122.957C255.652 120.762 239.061 113.374 239.061 113.374" stroke="#263238" stroke-width="0.759447" stroke-linecap="round" stroke-linejoin="round"/>
<path d="M238.245 122.307L238.631 116.843C239.355 116.791 240.036 116.481 240.549 115.969C241.063 115.457 241.374 114.777 241.428 114.054L241.714 109.97L235.692 109.541L235.406 113.625C235.354 114.347 235.565 115.065 236 115.644C236.435 116.224 237.065 116.627 237.773 116.778L237.38 122.242L234.369 122.028L234.305 123L241.184 123.487L241.256 122.521L238.245 122.307Z" fill="white" stroke="#263238" stroke-width="0.759447" stroke-linecap="round" stroke-linejoin="round"/>
<path d="M216.734 100.487C216.734 100.487 211.013 101.581 211.256 106.402C211.499 111.222 210.383 137.053 212.572 137.711C214.76 138.369 233.812 121.727 233.812 121.727C233.812 121.727 237.967 123.036 238.818 122.6C239.669 122.164 239.476 121.069 240.126 119.317C240.777 117.565 241.442 117.343 238.381 117.565C237.023 117.665 234.963 117.472 233.762 118.28C231.781 119.575 230.629 121.656 228.555 122.993C225.842 124.733 223.065 126.371 220.224 127.906C215.933 130.209 217.563 121.055 217.764 119.046C218.05 116.071 218.436 113.095 218.893 110.142" fill="#BEBEBE"/>
<path d="M216.734 100.487C216.734 100.487 211.013 101.581 211.256 106.402C211.499 111.222 210.383 137.053 212.572 137.711C214.76 138.369 233.812 121.727 233.812 121.727C233.812 121.727 237.967 123.036 238.818 122.6C239.669 122.164 239.476 121.069 240.126 119.317C240.777 117.565 241.442 117.343 238.381 117.565C237.023 117.665 234.963 117.472 233.762 118.28C231.781 119.575 230.629 121.656 228.555 122.993C225.842 124.733 223.065 126.371 220.224 127.906C215.933 130.209 217.563 121.055 217.764 119.046C218.05 116.071 218.436 113.095 218.893 110.142" stroke="#263238" stroke-width="0.759447" stroke-miterlimit="10" stroke-linecap="round"/>
<path d="M238.41 117.565C237.051 117.665 234.992 117.472 233.79 118.28C231.809 119.575 230.658 121.656 228.584 122.993C225.871 124.733 223.094 126.371 220.253 127.906C216.426 129.973 217.328 122.821 217.692 119.875C215.396 120.072 213.172 120.773 211.177 121.927C211.177 129.687 211.392 137.375 212.572 137.732C214.76 138.383 233.812 121.749 233.812 121.749C233.812 121.749 237.967 123.057 238.818 122.621C239.669 122.185 239.476 121.091 240.127 119.339C240.777 117.586 241.471 117.343 238.41 117.565Z" fill="white" stroke="#263238" stroke-width="0.759447" stroke-linecap="round" stroke-linejoin="round"/>
<path d="M263.783 124.996C264.87 122.979 260 116.879 255.638 112.517C252.583 113.435 249.854 115.207 247.771 117.623C251.661 119.682 255.33 121.914 255.016 122.986C254.358 125.182 243.881 135.566 243.881 135.566C243.881 135.566 241.857 130.925 240.541 131.583C239.225 132.241 237.737 134.286 238.617 134.286C239.497 134.286 241.056 136.467 241.056 136.467C241.056 136.467 242.407 137.897 243.502 137.897C244.596 137.897 262.253 127.814 263.783 124.996Z" fill="white" stroke="#263238" stroke-width="0.759447" stroke-linecap="round" stroke-linejoin="round"/>
<path d="M259.6 223.422C259.16 223.087 258.628 222.893 258.075 222.866C257.522 222.84 256.974 222.981 256.504 223.272C256.432 224.588 256.175 230.48 256.954 232.418C257.834 234.607 260.237 232.855 260.458 229.351C260.497 227.341 260.207 225.338 259.6 223.422Z" fill="#263238" stroke="#263238" stroke-width="0.759447" stroke-linecap="round" stroke-linejoin="round"/>
<path d="M229.678 222.471C228.963 222.199 228.14 222.256 227.461 223.522C227.654 227.534 231.287 233.742 233.182 232.29C235.077 230.838 229.9 225.067 229.678 223.093C229.65 222.887 229.65 222.677 229.678 222.471Z" fill="#263238" stroke="#263238" stroke-width="0.759447" stroke-linecap="round" stroke-linejoin="round"/>
<path d="M175.405 239.034C193.502 239.034 208.173 235.884 208.173 231.997C208.173 228.111 193.502 224.96 175.405 224.96C157.308 224.96 142.637 228.111 142.637 231.997C142.637 235.884 157.308 239.034 175.405 239.034Z" fill="#BEBEBE"/>
<g opacity="0.7">
<path d="M175.405 239.034C193.502 239.034 208.173 235.884 208.173 231.997C208.173 228.111 193.502 224.96 175.405 224.96C157.308 224.96 142.637 228.111 142.637 231.997C142.637 235.884 157.308 239.034 175.405 239.034Z" fill="white"/>
</g>
<path d="M160.48 143.711C160.48 143.711 157.14 153.48 156.904 154.767C156.668 156.054 151.784 172.339 150.711 182.658C149.638 192.978 150.926 195.738 154.566 203.033C158.206 210.327 165.508 226.19 165.508 226.19L168.511 225.975C168.511 225.975 166.795 207.753 165.293 201.531C163.791 195.309 161.86 190.167 162.504 186.735C163.148 183.302 170.843 164.229 170.843 164.229C170.843 164.229 172.58 181.156 173.653 192.735C174.726 204.313 187.17 230.051 187.17 230.051L190.166 229.622C190.166 229.622 190.381 211.393 188.879 204.106C187.377 196.818 187.384 195.309 187.384 188.022C187.384 180.734 184.481 157.935 184.995 154.581C185.575 150.784 184.144 145.999 184.144 145.999C184.144 145.999 165.629 147.122 160.48 143.711Z" fill="#263238" stroke="#263238" stroke-width="0.759447" stroke-linecap="round" stroke-linejoin="round"/>
<path d="M166.816 157.678L170.871 164.2L162.497 159.623" stroke="white" stroke-width="0.379724" stroke-linecap="round" stroke-linejoin="round"/>
<path d="M180.433 148.174C180.176 148.834 180.062 149.542 180.099 150.249C180.136 150.957 180.323 151.649 180.647 152.279C180.995 152.982 181.512 153.587 182.153 154.039C182.794 154.491 183.537 154.776 184.316 154.868C184.316 154.868 185.396 185.977 185.181 188.144" stroke="white" stroke-width="0.379724" stroke-linecap="round" stroke-linejoin="round"/>
<path d="M185.396 191.161C185.396 191.161 185.617 194.408 185.617 196.997C185.617 199.586 189.286 209.526 189.286 214.497" stroke="white" stroke-width="0.379724" stroke-linecap="round" stroke-linejoin="round"/>
<path d="M201.723 130.581C198.29 121.57 181.162 104.749 178.123 102.604C175.084 100.458 169.541 100.673 169.541 100.673C165.524 100.101 161.866 98.0472 159.286 94.916C154.787 89.5524 149.853 80.3269 149.424 75.3995C148.995 70.4721 148.137 57.5993 148.137 57.5993C148.137 57.5993 150.497 52.0211 150.282 50.3048C150.067 48.5884 147.064 46.872 144.918 48.3739C142.773 49.8757 141.7 51.8066 142.773 54.1666C143.378 55.372 143.742 56.6837 143.846 58.0284C142.747 66.8822 143.036 75.8533 144.704 84.6178C147.493 98.5562 154.587 107.782 156.518 111.207C158.449 114.633 160.051 139.449 160.051 142.881C160.051 146.314 161.553 147.172 167.768 147.601C173.982 148.031 182.886 147.301 184.173 146.014C185.46 144.726 184.595 124.724 184.595 124.724C184.595 124.724 195.744 136.946 197.675 138.662C199.606 140.378 205.156 139.585 201.723 130.581Z" fill="white" stroke="#263238" stroke-width="0.759447" stroke-linecap="round" stroke-linejoin="round"/>
<path d="M201.723 130.582C198.29 121.571 181.162 104.75 178.123 102.605C175.083 100.459 169.541 100.674 169.541 100.674C165.524 100.101 161.866 98.048 159.285 94.9168C155.701 90.4962 152.808 85.5581 150.704 80.2705L144.188 81.7008C144.339 82.6591 144.51 83.6317 144.703 84.6043C147.492 98.5427 154.587 107.768 156.518 111.194C158.449 114.619 160.051 139.435 160.051 142.868C160.051 146.301 161.552 147.159 167.767 147.588C173.982 148.017 182.885 147.288 184.173 146C185.46 144.713 184.595 124.71 184.595 124.71C184.595 124.71 195.744 136.932 197.675 138.648C199.606 140.365 205.155 139.585 201.723 130.582Z" fill="#BEBEBE" stroke="#263238" stroke-width="0.759447" stroke-linecap="round" stroke-linejoin="round"/>
<path d="M202.609 131.211C202.609 131.211 201.601 127.806 195.923 127.678C190.244 127.549 188.607 131.711 189.994 134.486C191.381 137.261 194.664 141.173 199.455 139.914C204.247 138.655 203.997 133.985 202.609 131.211Z" fill="white" stroke="#263238" stroke-width="0.759447" stroke-linecap="round" stroke-linejoin="round"/>
<path d="M175.269 99.336C175.269 99.336 177.358 99.7079 177.851 101.553C178.308 103.499 178.266 105.528 177.729 107.453C177.236 108.805 175.391 112.252 175.391 112.252C175.391 112.252 170.714 106.595 170.099 106.223C169.484 105.851 162.947 107.575 162.947 107.575C162.947 107.575 163.805 102.29 165.808 100.323C167.81 98.3563 174.039 99.0929 175.269 99.336Z" fill="white" stroke="#263238" stroke-width="0.759447" stroke-miterlimit="10" stroke-linecap="round"/>
<path d="M177.021 95.1595C177.021 95.1595 175.67 99.951 175.67 101.796C175.67 103.641 170.013 110.778 170.013 110.778L167.674 101.181L168.661 94.9092C168.661 94.9092 173.667 97.8628 177.021 95.1595Z" fill="white" stroke="#263238" stroke-width="0.759447" stroke-miterlimit="10" stroke-linecap="round"/>
<path d="M166.902 80.7705C166.902 80.7705 166.537 87.2855 165.428 89.9888C164.32 92.6921 165.185 97.0044 167.889 98.5706C170.592 100.137 174.654 98.4491 176.985 96.8471C179.317 95.2452 180.432 91.9269 181.662 88.2653C182.892 84.6037 183.014 79.2829 179.081 77.538C175.147 75.793 166.902 80.7705 166.902 80.7705Z" fill="white" stroke="#263238" stroke-width="0.759447" stroke-miterlimit="10" stroke-linecap="round"/>
<path d="M179.546 91.5047C179.546 91.5047 178.917 91.2973 178.287 89.4165C177.658 87.5356 179.546 87.3211 179.546 85.0183C179.546 82.7155 177.45 80.0122 174.54 80.8275C171.076 81.6362 167.458 81.4904 164.07 80.4055C161.345 79.3614 162.396 72.8678 168.046 71.6092C173.696 70.3505 171.4 74.3339 173.703 74.3339C176.006 74.3339 179.775 72.0311 180.855 73.9191C181.934 75.8071 180.64 77.0586 182.285 77.8953C183.93 78.7321 185.21 79.3614 185.21 82.0861C185.21 84.8109 181.441 91.0899 181.441 91.0899C181.441 91.0899 180.805 93.6001 179.546 91.5047Z" fill="#263238" stroke="#263238" stroke-width="0.759447" stroke-miterlimit="10" stroke-linecap="round"/>
<path d="M178.451 92.8201C178.451 92.8201 180.046 89.6238 181.526 90.2387C183.006 90.8537 182.02 92.5699 180.418 93.9285C178.816 95.2871 177.836 94.7866 177.836 94.7866" fill="white"/>
<path d="M178.451 92.8201C178.451 92.8201 180.046 89.6238 181.526 90.2387C183.006 90.8537 182.02 92.5699 180.418 93.9285C178.816 95.2871 177.836 94.7866 177.836 94.7866" stroke="#263238" stroke-width="0.759447" stroke-miterlimit="10" stroke-linecap="round"/>
<path d="M175.97 127.491L175.005 122.206C175.677 121.983 176.247 121.525 176.608 120.915C176.97 120.305 177.099 119.585 176.971 118.888L176.256 114.94L170.442 116.006L171.157 119.954C171.287 120.651 171.663 121.278 172.218 121.72C172.772 122.163 173.466 122.391 174.175 122.364L175.14 127.642L172.237 128.171L172.409 129.108L179.052 127.892L178.881 126.955L175.97 127.491Z" fill="white" stroke="#263238" stroke-width="0.759447" stroke-linecap="round" stroke-linejoin="round"/>
<path d="M196.173 130.051C196.173 130.051 193.527 129.944 186.526 127.699C180.132 125.639 178.273 123.808 176.628 123.064C175.434 122.528 171.772 121.691 171.343 122.979C170.914 124.266 173.445 124.452 173.445 124.452C173.445 124.452 173.66 124.881 174.947 127.019C176.235 129.158 179.238 128.092 180.096 128.092C180.955 128.092 191.038 136.917 194.464 138.819C197.889 140.722 202.617 139.463 202.617 136.245C202.617 133.027 202.609 130.674 196.173 130.051Z" fill="white" stroke="#263238" stroke-width="0.759447" stroke-miterlimit="10" stroke-linecap="round"/>
<path d="M149.209 54.7807C149.209 54.7807 152.212 52.421 150.281 50.2758C148.35 48.1306 144.275 50.7048 144.489 51.7775C144.704 52.8501 147.492 51.7775 147.492 51.7775C147.492 51.7775 145.776 53.9227 146.634 54.9953" fill="white"/>
<path d="M149.209 54.7807C149.209 54.7807 152.212 52.421 150.281 50.2758C148.35 48.1306 144.275 50.7048 144.489 51.7775C144.704 52.8501 147.492 51.7775 147.492 51.7775C147.492 51.7775 145.776 53.9227 146.634 54.9953" stroke="#263238" stroke-width="0.759447" stroke-linecap="round" stroke-linejoin="round"/>
<path d="M187.198 230.023C187.198 230.023 181.834 236.459 183.336 239.248C184.838 242.037 189.773 236.674 190.194 229.594L187.198 230.023Z" fill="white" stroke="#263238" stroke-width="0.759447" stroke-miterlimit="10" stroke-linecap="round"/>
<path d="M165.536 226.161C165.536 226.161 158.241 228.521 158.241 232.168C158.241 235.815 167.038 229.164 168.539 225.946L165.536 226.161Z" fill="white" stroke="#263238" stroke-width="0.759447" stroke-linecap="round" stroke-linejoin="round"/>
<path d="M150.403 77.4453C149.166 77.2879 142.823 78.4179 142.823 79.9984C142.823 80.878 143.202 83.6528 144.081 83.9103C144.961 84.1677 151.648 82.9019 152.027 82.5229C152.406 82.1438 151.355 77.7599 150.883 77.5597C150.729 77.5007 150.567 77.4623 150.403 77.4453Z" fill="white" stroke="#263238" stroke-width="0.759447" stroke-linecap="round" stroke-linejoin="round"/>
<path d="M108.238 239.033C126.335 239.033 141.006 235.883 141.006 231.996C141.006 228.11 126.335 224.959 108.238 224.959C90.1401 224.959 75.4692 228.11 75.4692 231.996C75.4692 235.883 90.1401 239.033 108.238 239.033Z" fill="#BEBEBE"/>
<g opacity="0.7">
<path d="M108.238 239.033C126.335 239.033 141.006 235.883 141.006 231.996C141.006 228.11 126.335 224.959 108.238 224.959C90.1401 224.959 75.4692 228.11 75.4692 231.996C75.4692 235.883 90.1401 239.033 108.238 239.033Z" fill="white"/>
</g>
<path d="M114.86 95.352C114.86 95.352 112.264 100.723 112.264 102.947C112.226 104.072 112.351 105.197 112.636 106.287L105.778 99.8003C105.778 99.8003 108.374 93.8716 108.56 92.756C108.746 91.6404 114.86 95.352 114.86 95.352Z" fill="white" stroke="#263238" stroke-width="0.759447" stroke-linecap="round" stroke-linejoin="round"/>
<path d="M116.526 78.8535C117.742 80.0264 118.47 81.6151 118.564 83.3018C118.564 85.8978 119.28 87.936 120.231 88.1219C121.182 88.3079 119.68 89.4235 119.68 89.4235L118.965 90.3461C118.965 90.3461 119.337 95.1662 117.299 96.8325C115.26 98.4988 107.844 93.6858 107.844 93.6858C107.844 93.6858 107.844 90.7179 108.216 85.34C108.588 79.962 112.264 77.7522 116.526 78.8535Z" fill="white" stroke="#263238" stroke-width="0.759447" stroke-linecap="round" stroke-linejoin="round"/>
<path d="M116.526 81.2633C117.381 81.1666 118.195 80.8404 118.879 80.3192C119.564 79.7979 120.096 79.1011 120.417 78.3025C121.532 75.5206 120.602 69.7707 114.86 69.0055C109.117 68.2403 112.078 71.6015 108.559 72.896C105.041 74.1904 99.105 73.2678 96.6949 78.2739C94.2848 83.28 97.2527 89.5733 96.509 91.6187C95.7652 93.664 88.5422 96.6247 85.2024 102.346C81.8626 108.067 88.3562 120.325 87.7984 123.286C87.2406 126.246 82.7923 128.85 85.2024 134.592C87.6125 140.335 96.323 143.675 103.553 138.883C110.783 134.092 107.072 116.828 104.111 112.194C101.15 107.559 106.771 98.3697 109.918 95.2159C113.065 92.0621 110.783 85.69 110.783 83.28C110.783 80.8699 116.526 81.2633 116.526 81.2633Z" fill="#BEBEBE" stroke="#263238" stroke-width="0.759447" stroke-linecap="round" stroke-linejoin="round"/>
<path d="M120.395 74.3408C120.395 74.3408 121.976 77.5018 115.654 78.5602C109.332 79.6187 102.781 82.5079 103.275 86.9847C103.768 91.4616 103.804 100.415 97.7465 103.312C91.6892 106.208 87.4769 108.318 86.6831 115.426" stroke="#263238" stroke-width="0.379724" stroke-linecap="round" stroke-linejoin="round"/>
<path d="M87.7343 138.082C87.7343 138.082 84.0513 133.076 88.7927 126.225C93.5342 119.374 97.4819 114.94 101.93 107.788" stroke="#263238" stroke-width="0.379724" stroke-linecap="round" stroke-linejoin="round"/>
<path d="M96.5093 91.6469C97.2887 89.0199 97.705 86.2985 97.7465 83.5585C97.7465 79.3463 101.959 75.134 107.487 74.8694C113.015 74.6048 118.286 73.8182 117.764 70.3926" stroke="#263238" stroke-width="0.379724" stroke-linecap="round" stroke-linejoin="round"/>
<path d="M105.592 139.255C105.592 139.255 101.701 145.184 104.876 155.568C108.052 165.952 113.036 179.289 112.85 183.366C112.664 187.442 110.44 194.486 110.44 200.043C110.44 205.6 108.588 221.92 108.588 221.92L111.921 223.214C111.921 223.214 120.817 200.787 122.119 191.518C123.42 182.25 123.599 166.688 123.599 166.688C123.599 166.688 124.708 152.228 121.375 139.627C121.346 139.648 109.482 135.758 105.592 139.255Z" fill="white" stroke="#263238" stroke-width="0.759447" stroke-linecap="round" stroke-linejoin="round"/>
<path d="M113.809 161.782C113.809 161.782 117.914 180.147 117.914 185.332C117.914 190.517 110.762 222.277 110.762 222.277" stroke="#263238" stroke-width="0.379724" stroke-linecap="round" stroke-linejoin="round"/>
<path d="M137.566 101.959C136.751 101.137 134.706 103.182 134.398 104.105C134.091 105.027 134.906 110.041 134.906 110.041C134.906 110.041 127.461 125.774 125.423 126.303C123.385 126.832 118.565 118.887 118.565 118.887L118.193 129.614C118.193 129.614 125.237 136.287 127.647 134.992C130.057 133.698 137.659 109.776 137.659 109.776C137.861 108.668 138.18 107.584 138.61 106.544C139.204 105.235 138.403 102.782 137.566 101.959Z" fill="white" stroke="#263238" stroke-width="0.759447" stroke-linecap="round" stroke-linejoin="round"/>
<path d="M134.706 107.896C134.706 107.896 133.476 104.213 133.476 103.083C133.529 101.498 133.735 99.9222 134.091 98.377C134.398 97.2471 135.321 98.377 135.321 99.3997C135.297 100.256 135.227 101.111 135.113 101.96C135.113 101.96 136.343 103.598 136.236 104.928L136.136 106.258" fill="white"/>
<path d="M134.706 107.896C134.706 107.896 133.476 104.213 133.476 103.083C133.529 101.498 133.735 99.9222 134.091 98.377C134.398 97.2471 135.321 98.377 135.321 99.3997C135.297 100.256 135.227 101.111 135.113 101.96C135.113 101.96 136.343 103.598 136.236 104.928L136.136 106.258" stroke="#263238" stroke-width="0.759447" stroke-linecap="round" stroke-linejoin="round"/>
<path d="M138.804 105.75L137.867 100.637C138.517 100.418 139.067 99.9725 139.416 99.3817C139.766 98.7909 139.891 98.0943 139.769 97.4188L139.054 93.5928L133.418 94.6298L134.134 98.4558C134.26 99.1308 134.625 99.7378 135.162 100.166C135.699 100.594 136.372 100.814 137.059 100.787L137.995 105.908L135.178 106.423L135.342 107.324L141.779 106.144L141.614 105.243L138.804 105.75Z" fill="white" stroke="#263238" stroke-width="0.759447" stroke-linecap="round" stroke-linejoin="round"/>
<path d="M140.262 97.562C140.166 97.3441 140.027 97.1477 139.854 96.9844C139.681 96.821 139.477 96.694 139.254 96.611C138.882 96.4894 138.496 96.5323 138.46 97.2045C138.389 98.556 139.29 104.62 139.497 103.29C139.676 102.11 140.913 98.9635 140.262 97.562Z" fill="white" stroke="#263238" stroke-width="0.759447" stroke-linecap="round" stroke-linejoin="round"/>
<path d="M139.547 98.6766C139.453 98.4581 139.314 98.2611 139.141 98.0976C138.968 97.9341 138.763 97.8075 138.539 97.7256C138.167 97.5968 137.781 97.6397 137.745 98.3191C137.674 99.6634 139.29 103.918 139.497 102.609C139.676 101.408 140.198 100.078 139.547 98.6766Z" fill="white" stroke="#263238" stroke-width="0.759447" stroke-linecap="round" stroke-linejoin="round"/>
<path d="M139.39 100.022C139.259 99.7416 139.044 99.5092 138.775 99.3565C138.346 99.1134 137.702 98.9132 137.652 99.7998C137.581 101.144 139.125 104.87 139.333 103.54C139.54 102.21 140.112 101.487 139.39 100.022Z" fill="white" stroke="#263238" stroke-width="0.759447" stroke-linecap="round" stroke-linejoin="round"/>
<path d="M138.81 101.301C138.716 101.083 138.577 100.886 138.404 100.722C138.231 100.559 138.026 100.432 137.802 100.35C137.43 100.222 137.087 100.272 137.016 100.944C136.944 102.288 138.889 106.4 139.096 105.07C139.413 103.816 139.312 102.493 138.81 101.301Z" fill="white" stroke="#263238" stroke-width="0.759447" stroke-linecap="round" stroke-linejoin="round"/>
<path d="M101.73 100.473C101.988 100.06 102.332 99.7072 102.738 99.4391C103.145 99.171 103.604 98.9936 104.085 98.919C104.567 98.8443 105.058 98.8742 105.527 99.0066C105.995 99.1389 106.43 99.3706 106.801 99.686C110.426 102.711 117.27 108.461 119.673 110.735C123.006 113.882 120.389 119.818 120.389 122.228C120.389 124.638 121.504 140.021 121.504 140.943C121.504 141.866 118.164 142.981 114.46 142.059C110.755 141.136 105.592 139.255 105.592 139.255C105.592 139.255 107.444 129.958 105.964 127.026C104.662 124.445 97.1103 108.203 101.73 100.473Z" fill="#263238" stroke="#263238" stroke-width="0.759447" stroke-linecap="round" stroke-linejoin="round"/>
<path d="M105.777 140.385C105.777 140.385 100.771 146.106 102.252 153.551C103.732 160.995 110.412 162.626 114.116 165.594C117.821 168.562 129.499 175.971 129.499 175.971C129.499 175.971 122.269 182.829 118.564 188.951C114.86 195.073 107.837 200.622 107.837 200.622L109.689 203.404C109.689 203.404 127.668 190.431 133.225 185.425C138.782 180.419 142.522 176.529 142.522 174.698C142.522 172.867 127.675 156.511 123.385 151.141C120.558 147.762 116.925 145.15 112.822 143.546" fill="white"/>
<path d="M105.777 140.385C105.777 140.385 100.771 146.106 102.252 153.551C103.732 160.995 110.412 162.626 114.116 165.594C117.821 168.562 129.499 175.971 129.499 175.971C129.499 175.971 122.269 182.829 118.564 188.951C114.86 195.073 107.837 200.622 107.837 200.622L109.689 203.404C109.689 203.404 127.668 190.431 133.225 185.425C138.782 180.419 142.522 176.529 142.522 174.698C142.522 172.867 127.675 156.511 123.385 151.141C120.558 147.762 116.925 145.15 112.822 143.546" stroke="#263238" stroke-width="0.759447" stroke-linecap="round" stroke-linejoin="round"/>
<path d="M129.499 175.971C131.702 175.028 134.113 174.68 136.492 174.962" stroke="#263238" stroke-width="0.379724" stroke-linecap="round" stroke-linejoin="round"/>
<path d="M107.544 142.115C107.544 142.115 104.734 148.38 107.544 152.27C110.355 156.161 131.094 172.795 132.825 173.654C134.555 174.512 135.628 175.384 134.548 176.679C133.468 177.973 109.518 201.745 109.518 201.745" stroke="#263238" stroke-width="0.379724" stroke-linecap="round" stroke-linejoin="round"/>
<path d="M109.854 105.17C109.854 105.17 107.308 98.312 103.11 99.1559C97.3888 100.293 98.5473 126.489 97.067 127.226C95.5866 127.962 85.5745 111.843 84.8307 110.92C84.0869 109.998 85.3885 108.882 83.3503 107.216C81.3122 105.549 80.9403 106.286 78.7161 104.992C76.492 103.697 75.7483 104.434 75.9342 105.356C76.1201 106.279 79.274 107.395 79.274 107.395C79.274 107.395 75.1976 107.394 73.3453 106.844C71.4931 106.293 72.6302 107.559 73.1594 108.51C73.6886 109.461 77.2358 110.92 78.5302 110.92C79.6597 110.991 80.7789 111.178 81.87 111.478C81.87 111.478 87.5912 125.559 90.3946 129.271C93.198 132.983 96.6951 139.09 99.8489 135.757C103.003 132.425 107.816 111.106 107.816 111.106" fill="#263238"/>
<path d="M109.854 105.17C109.854 105.17 107.308 98.312 103.11 99.1559C97.3888 100.293 98.5473 126.489 97.067 127.226C95.5866 127.962 85.5745 111.843 84.8307 110.92C84.0869 109.998 85.3885 108.882 83.3503 107.216C81.3122 105.549 80.9403 106.286 78.7161 104.992C76.492 103.697 75.7483 104.434 75.9342 105.356C76.1201 106.279 79.274 107.395 79.274 107.395C79.274 107.395 75.1976 107.394 73.3453 106.844C71.4931 106.293 72.6302 107.559 73.1594 108.51C73.6886 109.461 77.2358 110.92 78.5302 110.92C79.6597 110.991 80.7789 111.178 81.87 111.478C81.87 111.478 87.5912 125.559 90.3946 129.271C93.198 132.983 96.6951 139.09 99.8489 135.757C103.003 132.425 107.816 111.106 107.816 111.106" stroke="#263238" stroke-width="0.759447" stroke-linecap="round" stroke-linejoin="round"/>
<path d="M98.4763 113.738C97.8899 120.389 97.7611 126.869 97.046 127.226C95.5585 127.941 87.1554 115.784 85.532 110.492C85.1816 109.362 85.3675 108.883 83.3293 107.209C81.2912 105.536 80.9193 106.287 78.6951 104.992C76.471 103.698 75.7273 104.434 75.9132 105.357C76.0991 106.279 79.253 107.395 79.253 107.395C79.253 107.395 75.1766 107.395 73.3243 106.844C71.4721 106.294 72.6092 107.56 73.1384 108.511C73.6676 109.462 77.2148 110.921 78.5092 110.921C79.6387 110.991 80.7579 111.178 81.849 111.479C81.849 111.479 87.5702 125.56 90.3736 129.272C93.177 132.983 96.6741 139.091 99.8279 135.758C101.709 133.756 104.19 125.331 105.885 118.873C103.096 115.441 100.5 114.132 98.4763 113.738Z" fill="white" stroke="#263238" stroke-width="0.759447" stroke-linecap="round" stroke-linejoin="round"/>
<path d="M108.559 221.941C108.559 221.941 104.111 225.088 104.476 226.947C104.841 228.807 108.002 229.915 108.373 230.473C108.745 231.031 112.722 234.979 114.481 235.064C116.24 235.15 115.768 233.949 115.074 232.769C114.381 231.589 112.264 228.063 112.264 226.397C112.255 225.335 112.131 224.278 111.892 223.243L108.559 221.941Z" fill="white" stroke="#263238" stroke-width="0.759447" stroke-linecap="round" stroke-linejoin="round"/>
<path d="M107.816 200.622C107.816 200.622 102.252 201.101 101.73 201.187C101.208 201.273 99.9919 201.187 100.686 204.841C101.379 208.496 100.771 212.15 101.472 214.324C102.173 216.498 102.945 217.185 103.296 216.842C103.646 216.498 104.683 213.101 105.82 210.32C106.928 207.921 108.214 205.61 109.668 203.404L107.816 200.622Z" fill="white" stroke="#263238" stroke-width="0.759447" stroke-linecap="round" stroke-linejoin="round"/>
<path d="M105.506 204.598L105.12 200.865C103.625 200.994 102.023 201.144 101.752 201.187C101.23 201.28 100.014 201.187 100.708 204.841C101.401 208.496 100.793 212.15 101.494 214.324C102.195 216.498 102.967 217.185 103.318 216.842C103.668 216.498 104.705 213.102 105.842 210.32C106.59 208.624 107.455 206.982 108.431 205.406C107.515 204.957 106.523 204.682 105.506 204.598Z" fill="#263238" stroke="#263238" stroke-width="0.759447" stroke-linecap="round" stroke-linejoin="round"/>
<path d="M112.264 226.39C112.262 225.784 112.219 225.18 112.135 224.58L109.518 225.725L106.264 223.865C105.241 224.859 104.304 226.054 104.476 226.94C104.848 228.793 108.002 229.908 108.374 230.466C108.745 231.024 112.722 234.972 114.481 235.057C116.24 235.143 115.768 233.942 115.075 232.762C114.381 231.582 112.264 228.056 112.264 226.39Z" fill="#263238" stroke="#263238" stroke-width="0.759447" stroke-linecap="round" stroke-linejoin="round"/>
<path d="M37.8738 239.034C55.9713 239.034 70.6421 235.884 70.6421 231.997C70.6421 228.111 55.9713 224.96 37.8738 224.96C19.7764 224.96 5.10547 228.111 5.10547 231.997C5.10547 235.884 19.7764 239.034 37.8738 239.034Z" fill="#BEBEBE"/>
<g opacity="0.7">
<path d="M37.8738 239.034C55.9713 239.034 70.6421 235.884 70.6421 231.997C70.6421 228.111 55.9713 224.96 37.8738 224.96C19.7764 224.96 5.10547 228.111 5.10547 231.997C5.10547 235.884 19.7764 239.034 37.8738 239.034Z" fill="white"/>
</g>
<path d="M33.1538 140.529C33.1538 140.529 28.2693 175.571 26.1239 182.008C23.9784 188.444 21.1178 209.184 19.9235 215.62C19.2438 219.166 18.7662 222.747 18.4932 226.347L21.5969 227.306C21.5969 227.306 36.136 190.833 39.9478 183.202C42.3934 178.111 44.2343 172.752 45.433 167.233C45.433 167.233 48.2936 186.542 48.2936 192.499C48.2936 198.456 50.2031 217.05 50.6751 220.154C51.1471 223.258 52.1054 227.063 52.1054 227.063L54.966 226.591C54.966 226.591 59.5001 200.366 60.2152 187.014C60.9304 173.662 58.7849 154.832 57.3546 148.639C56.6838 145.473 55.7655 142.364 54.6084 139.342C54.6084 139.342 39.9478 142.674 33.1538 140.529Z" fill="#263238" stroke="#263238" stroke-width="0.759447" stroke-linecap="round" stroke-linejoin="round"/>
<path d="M46.4771 167.283L52.5272 152.809" stroke="white" stroke-width="0.379724" stroke-linecap="round" stroke-linejoin="round"/>
<path d="M47.5566 165.123L52.0973 159.51" stroke="white" stroke-width="0.379724" stroke-linecap="round" stroke-linejoin="round"/>
<path d="M35.4205 100.009C35.4205 100.009 33.0391 100.602 20.5239 107.275C8.00871 113.947 -2.44683 122.157 1.12894 126.448C4.70471 130.739 28.8483 141.023 28.8483 141.023L30.6505 138.384C30.6505 138.384 11.8562 126.09 11.8562 123.709C11.8562 121.327 27.6754 116.457 27.6754 116.457L33.1535 140.529C36.5554 142.05 40.2925 142.666 44.0024 142.317C47.7139 142.121 51.3359 141.105 54.6081 139.342L56.0384 114.548C56.0384 114.548 70.9422 112.166 75.1116 103.699C79.2809 95.2315 73.5597 75.0928 73.5597 75.0928L71.0566 75.3359C71.0566 75.3359 71.2998 94.8811 69.2688 98.5784C67.2377 102.276 51.0324 99.6511 44.9535 98.936C38.8747 98.2208 35.4205 100.009 35.4205 100.009Z" fill="#BEBEBE" stroke="#263238" stroke-width="0.759447" stroke-linecap="round" stroke-linejoin="round"/>
<path d="M36.5365 114.783L27.6758 116.457L34.813 118.459" stroke="#263238" stroke-width="0.379724" stroke-linecap="round" stroke-linejoin="round"/>
<path d="M56.2031 108.733L56.0386 114.548L59.6572 106.145" stroke="#263238" stroke-width="0.379724" stroke-linecap="round" stroke-linejoin="round"/>
<path d="M36.0139 95.1167C36.0139 95.1167 33.99 95.4743 33.5109 97.2622C33.0687 99.149 33.1105 101.117 33.6325 102.983C34.1116 104.299 35.8995 107.632 35.8995 107.632C35.8995 107.632 40.3978 103.184 41.0772 103.341C44.4027 104.099 46.2621 104.421 47.9927 104.857C47.9927 104.857 47.0988 97.9845 45.1965 96.0822C43.2942 94.1799 37.2082 94.9165 36.0139 95.1167Z" fill="white" stroke="#263238" stroke-width="0.759447" stroke-miterlimit="10" stroke-linecap="round"/>
<path d="M34.3477 91.0693C34.3477 91.0693 35.6564 95.7178 35.6564 97.5057C35.6564 99.2936 41.1416 106.202 41.1416 106.202L43.4086 96.905L42.4503 90.8262C42.4503 90.8262 37.5658 93.6868 34.3477 91.0693Z" fill="white" stroke="#263238" stroke-width="0.759447" stroke-miterlimit="10" stroke-linecap="round"/>
<path d="M44.1243 77.1234C44.1243 77.1234 44.4818 83.4382 45.5546 86.0628C46.6273 88.6874 45.7906 92.8567 43.166 94.4015C40.5413 95.9462 36.6152 94.2871 34.3481 92.7352C32.0811 91.1833 31.0084 87.9651 29.8212 84.3893C28.634 80.8136 28.5053 75.6931 32.3242 74.0196C36.1432 72.3461 44.1243 77.1234 44.1243 77.1234Z" fill="white" stroke="#263238" stroke-width="0.759447" stroke-miterlimit="10" stroke-linecap="round"/>
<path d="M31.2513 87.4933C31.2513 87.4933 33.7543 86.6566 33.7543 85.4623C33.7543 84.268 32.6816 83.56 32.56 81.7721C32.4384 79.9842 34.9415 79.0259 34.9415 77.9532C34.9496 77.349 34.8701 76.7467 34.7055 76.1653C34.7055 76.1653 40.3051 78.1964 43.6449 78.1964C46.9846 78.1964 47.6998 75.4502 46.7415 74.735C45.7832 74.0199 48.7725 75.2142 47.5782 72.7111C46.3839 70.2081 40.5483 68.2986 34.827 69.9721C29.1058 71.6455 28.3907 74.1414 28.3907 74.1414C28.3907 74.1414 23.499 76.2869 23.8566 79.7411C24.2142 83.1953 29.6994 87.3718 30.1785 87.7651C30.6577 88.1584 31.2513 87.4933 31.2513 87.4933Z" fill="#263238" stroke="#263238" stroke-width="0.759447" stroke-miterlimit="10" stroke-linecap="round"/>
<path d="M32.9171 88.802C32.9171 88.802 31.3654 85.7057 29.9353 86.2992C28.5051 86.8927 29.4633 88.566 31.0079 89.8746C32.5524 91.1831 33.5106 90.7112 33.5106 90.7112" fill="white"/>
<path d="M32.9171 88.802C32.9171 88.802 31.3654 85.7057 29.9353 86.2992C28.5051 86.8927 29.4633 88.566 31.0079 89.8746C32.5524 91.1831 33.5106 90.7112 33.5106 90.7112" stroke="#263238" stroke-width="0.759447" stroke-miterlimit="10" stroke-linecap="round"/>
<path d="M70.928 75.3345C70.928 75.3345 70.1342 70.4935 70.4346 69.6139C70.7349 68.7344 72.7013 66.7537 73.4951 67.5402C74.2888 68.3268 75.0682 70.7008 74.4818 71.9808C74.066 72.9849 73.7569 74.0298 73.5594 75.0985L70.928 75.3345Z" fill="white" stroke="#263238" stroke-width="0.759447" stroke-linecap="round" stroke-linejoin="round"/>
<path d="M70.7277 73.2614C70.7277 73.2614 69.5405 69.6856 69.5405 68.62C69.5938 67.0909 69.7925 65.5703 70.1341 64.0788C70.4345 62.9918 71.3213 64.0788 71.3213 65.0657C71.2982 65.8911 71.2314 66.7147 71.121 67.533C71.121 67.533 72.3082 69.1135 72.208 70.3936L72.1079 71.6809" fill="white"/>
<path d="M70.7277 73.2614C70.7277 73.2614 69.5405 69.6856 69.5405 68.62C69.5938 67.0909 69.7925 65.5703 70.1341 64.0788C70.4345 62.9918 71.3213 64.0788 71.3213 65.0657C71.2982 65.8911 71.2314 66.7147 71.121 67.533C71.121 67.533 72.3082 69.1135 72.208 70.3936L72.1079 71.6809" stroke="#263238" stroke-width="0.759447" stroke-linecap="round" stroke-linejoin="round"/>
<path d="M74.6829 71.1875L73.7747 66.2529C74.4041 66.0446 74.9369 65.6156 75.2747 65.0451C75.6125 64.4747 75.7325 63.8012 75.6126 63.1492L74.9404 59.459L69.498 60.453L70.1775 64.1432C70.2983 64.8026 70.6556 65.3952 71.1822 65.81C71.7089 66.2247 72.3687 66.4331 73.0381 66.396L73.9392 71.3305L71.2216 71.8311L71.3789 72.7036L77.5936 71.5665L77.4363 70.6941L74.6829 71.1875Z" fill="white" stroke="#263238" stroke-width="0.759447" stroke-linecap="round" stroke-linejoin="round"/>
<path d="M76.0914 63.2923C75.9989 63.0811 75.8644 62.891 75.6959 62.7337C75.5275 62.5763 75.3287 62.4549 75.1117 62.377C74.7542 62.2555 74.3967 62.2984 74.3538 62.9491C74.2823 64.2505 75.1546 70.0997 75.3477 68.8198C75.5265 67.6828 76.7135 64.6509 76.0914 63.2923Z" fill="white" stroke="#263238" stroke-width="0.759447" stroke-linecap="round" stroke-linejoin="round"/>
<path d="M75.3974 64.3646C75.3054 64.1543 75.1718 63.9648 75.0047 63.8075C74.8376 63.6502 74.6403 63.5284 74.4249 63.4493C74.0674 63.3277 73.7098 63.3706 73.6669 64.0213C73.5954 65.3228 75.1543 69.4273 75.3473 68.1473C75.5261 67.0246 76.0267 65.7232 75.3974 64.3646Z" fill="white" stroke="#263238" stroke-width="0.759447" stroke-linecap="round" stroke-linejoin="round"/>
<path d="M75.2475 65.6661C75.1199 65.3984 74.9159 65.1745 74.6612 65.0225C74.2393 64.7937 73.6243 64.6007 73.5743 65.4516C73.5099 66.753 75.0044 70.3427 75.1903 69.0269C75.3763 67.7112 75.9483 67.0819 75.2475 65.6661Z" fill="white" stroke="#263238" stroke-width="0.759447" stroke-linecap="round" stroke-linejoin="round"/>
<path d="M74.6895 66.8968C74.5964 66.6872 74.4625 66.4983 74.2955 66.3411C74.1285 66.184 73.9318 66.0617 73.717 65.9815C73.3595 65.8599 73.0019 65.9028 72.959 66.5536C72.8875 67.855 74.7681 71.8165 74.9684 70.5365C75.2691 69.3248 75.1713 68.0485 74.6895 66.8968Z" fill="white" stroke="#263238" stroke-width="0.759447" stroke-linecap="round" stroke-linejoin="round"/>
<path d="M18.493 226.348C18.493 226.348 14.2021 231.833 13.9661 234.929C13.7301 238.026 20.4025 233.263 21.5968 227.306L18.493 226.348Z" fill="white" stroke="#263238" stroke-width="0.759447" stroke-linecap="round" stroke-linejoin="round"/>
<path d="M54.9661 226.591C54.9661 226.591 64.5062 231.833 62.3608 232.784C60.2153 233.735 54.9661 230.403 52.1055 227.063L54.9661 226.591Z" fill="white" stroke="#263238" stroke-width="0.759447" stroke-linecap="round" stroke-linejoin="round"/>
<path d="M30.6501 138.384C30.6501 138.384 36.9427 139.242 36.9427 140.529C36.9562 140.886 36.8729 141.24 36.7017 141.553C36.5305 141.867 36.2778 142.128 35.9702 142.31C35.9702 142.31 35.484 143.439 33.0599 143.74C30.6358 144.04 28.8481 140.987 28.8481 140.987L30.6501 138.384Z" fill="white" stroke="#263238" stroke-width="0.759447" stroke-linecap="round" stroke-linejoin="round"/>
</svg>
