<svg width="224" height="240" viewBox="0 0 224 240" fill="none" xmlns="http://www.w3.org/2000/svg">
<path d="M97.2845 121.509C97.2845 128.163 91.7349 138.69 86.9567 138.69C82.9749 138.69 76.6289 128.163 76.6289 121.509C76.6289 114.854 81.2528 109.459 86.9567 109.459C92.6606 109.459 97.2845 114.839 97.2845 121.509Z" fill="#263238" stroke="#263238" stroke-linecap="round" stroke-linejoin="round"/>
<path d="M86.668 139.009L86.7675 141.423L88.7783 140.92L86.9567 138.69" fill="#263238"/>
<path d="M86.668 139.009L86.7675 141.423L88.7783 140.92L86.9567 138.69" stroke="#263238" stroke-linecap="round" stroke-linejoin="round"/>
<path d="M94.3286 114.282C95.548 116.113 95.5131 118.264 94.2589 119.105C93.0046 119.946 90.9988 119.13 89.7793 117.298C88.5599 115.466 88.5948 113.316 89.854 112.475C91.1132 111.634 93.1141 112.45 94.3286 114.282Z" fill="white"/>
<path d="M88.7535 111.754C88.6739 112.162 88.1015 112.391 87.4744 112.251C86.8472 112.112 86.4043 111.694 86.4789 111.286C86.5536 110.878 87.1309 110.649 87.7581 110.788C88.3852 110.927 88.8332 111.355 88.7535 111.754Z" fill="white"/>
<path d="M87.5837 139.93C87.2065 141.419 86.96 142.938 86.8471 144.47C86.7525 145.55 86.7376 146.635 86.7426 147.725C86.7023 148.508 86.7575 149.294 86.9068 150.064C87.2877 151.243 87.8485 152.356 88.5692 153.364C89.4227 154.634 90.1813 155.964 90.8388 157.346C91.1621 158.075 91.4154 158.833 91.5954 159.61C91.6867 160.014 91.7532 160.423 91.7945 160.835C91.7945 160.969 91.7945 161.099 91.8293 161.233C91.8691 161.676 91.8293 160.924 91.8293 160.9C91.7746 161.208 91.7895 161.542 91.7497 161.85C91.4461 164.145 90.3411 166.136 89.0918 168.037C87.9421 169.784 86.7127 171.471 85.4933 173.168C84.6378 174.283 83.888 175.474 83.2535 176.727C82.62 178.14 82.257 179.66 82.1834 181.207C82.0615 183.436 82.0964 185.671 82.2879 187.896C82.2879 187.597 82.3178 187.07 82.2879 186.697C82.054 183.471 81.9993 180.226 83.582 177.319C84.2756 176.109 85.0471 174.946 85.8915 173.835C87.091 172.188 88.2706 170.526 89.3755 168.818C90.4518 167.349 91.2066 165.67 91.5908 163.889C91.975 162.109 91.9799 160.268 91.6053 158.486C90.9981 155.624 89.2212 153.329 87.7977 150.85C87.4706 150.303 87.1988 149.725 86.9865 149.123C86.7371 148.205 86.6678 147.246 86.7824 146.301C86.8731 144.559 87.1349 142.831 87.5638 141.14C87.6683 140.752 87.4593 140.284 87.5638 139.896L87.5837 139.93Z" fill="#263238"/>
<path d="M26.2991 45.7559C26.2991 52.4105 20.7495 62.9373 15.9713 62.9373C11.9895 62.9373 5.64355 52.4105 5.64355 45.7559C5.64355 39.1013 10.2674 33.7109 15.9713 33.7109C21.6753 33.7109 26.2991 39.1013 26.2991 45.7559Z" fill="#263238" stroke="#263238" stroke-linecap="round" stroke-linejoin="round"/>
<path d="M15.6826 63.2551L15.7822 65.6641L17.793 65.1614L15.9713 62.9365" fill="#263238"/>
<path d="M15.6826 63.2551L15.7822 65.6641L17.793 65.1614L15.9713 62.9365" stroke="#263238" stroke-linecap="round" stroke-linejoin="round"/>
<path d="M23.3473 38.5232C24.5618 40.3548 24.5269 42.505 23.2727 43.3462C22.0184 44.1873 20.0126 43.3462 18.7931 41.5394C17.5737 39.7327 17.6135 37.5576 18.8678 36.7165C20.1221 35.8753 22.1279 36.6966 23.3473 38.5232Z" fill="white"/>
<path d="M17.778 35.9997C17.6983 36.4078 17.126 36.6368 16.4988 36.4974C15.8717 36.358 15.4337 35.94 15.5034 35.5318C15.5731 35.1237 16.1554 34.8947 16.7825 35.0341C17.4097 35.1735 17.8526 35.5915 17.778 35.9997Z" fill="white"/>
<path d="M16.5983 64.1761C16.2236 65.6637 15.9772 67.1806 15.8617 68.7103C15.7721 69.7954 15.7522 70.8804 15.7572 71.9655C15.7171 72.7507 15.7723 73.5378 15.9214 74.3097C16.3041 75.4874 16.8665 76.5989 17.5888 77.6047C18.4426 78.8819 19.1996 80.2212 19.8535 81.6114C20.1773 82.3387 20.4307 83.0953 20.61 83.871C20.7009 84.2748 20.7674 84.6837 20.8091 85.0954C20.8091 85.2298 20.8091 85.3642 20.8439 85.4986C20.8837 85.9366 20.8439 85.185 20.8439 85.1601C20.7892 85.4687 20.8041 85.8022 20.7643 86.1158C20.4607 88.4053 19.3607 90.3962 18.1064 92.3025C16.9617 94.0495 15.7273 95.7368 14.5079 97.4291C13.6513 98.5442 12.9014 99.7373 12.2681 100.993C11.6368 102.407 11.2739 103.926 11.198 105.472C11.0806 107.699 11.1172 109.93 11.3075 112.152C11.3075 111.858 11.3374 111.331 11.3075 110.952C11.0736 107.732 11.0188 104.482 12.6016 101.58C13.2954 100.37 14.0668 99.2063 14.911 98.096C16.1106 96.4485 17.2951 94.7911 18.3951 93.079C19.4714 91.6097 20.2262 89.9303 20.6104 88.15C20.9946 86.3697 20.9995 84.5285 20.6249 82.7462C20.0177 79.8843 18.2458 77.5947 16.8223 75.1111C16.4925 74.5662 16.219 73.9892 16.006 73.389C15.7566 72.4685 15.6874 71.5086 15.802 70.5619C15.8927 68.8216 16.1544 67.0945 16.5834 65.4054C16.6879 65.0172 16.4839 64.5444 16.5834 64.1611L16.5983 64.1761Z" fill="#263238"/>
<path d="M222.896 70.4728C222.896 77.1274 217.341 87.6542 212.563 87.6542C208.581 87.6542 202.235 77.1274 202.235 70.4728C202.235 63.8182 206.859 58.4229 212.563 58.4229C218.267 58.4229 222.896 63.8182 222.896 70.4728Z" fill="#263238" stroke="#263238" stroke-linecap="round" stroke-linejoin="round"/>
<path d="M212.274 87.9728L212.374 90.3818L214.385 89.8791L212.563 87.6543" fill="#263238"/>
<path d="M212.274 87.9728L212.374 90.3818L214.385 89.8791L212.563 87.6543" stroke="#263238" stroke-linecap="round" stroke-linejoin="round"/>
<path d="M219.939 63.2408C221.154 65.0724 221.119 67.2226 219.864 68.0638C218.61 68.9049 216.604 68.0638 215.385 66.257C214.166 64.4503 214.205 62.2752 215.46 61.4341C216.714 60.5929 218.725 61.4092 219.939 63.2408Z" fill="white"/>
<path d="M214.38 60.7175C214.3 61.1256 213.728 61.3545 213.1 61.2152C212.473 61.0758 212.035 60.6577 212.105 60.2496C212.175 59.8415 212.757 59.6125 213.384 59.7519C214.011 59.8912 214.444 60.3043 214.38 60.7175Z" fill="white"/>
<path d="M213.189 88.893C212.815 90.3806 212.568 91.8976 212.453 93.4273C212.363 94.5124 212.343 95.5974 212.348 96.6824C212.308 97.4676 212.363 98.2548 212.513 99.0267C212.896 100.204 213.459 101.315 214.18 102.322C215.032 103.591 215.789 104.922 216.445 106.303C216.768 107.033 217.021 107.791 217.201 108.568C217.295 108.971 217.361 109.38 217.4 109.793C217.4 109.927 217.4 110.061 217.435 110.191C217.475 110.634 217.435 109.882 217.435 109.857C217.38 110.166 217.395 110.499 217.355 110.808C217.052 113.102 215.952 115.093 214.698 116.995C213.553 118.742 212.323 120.429 211.099 122.126C210.242 123.241 209.492 124.434 208.859 125.69C208.228 127.104 207.865 128.623 207.789 130.169C207.67 132.399 207.705 134.634 207.894 136.859C207.894 136.565 207.923 136.033 207.894 135.659C207.66 132.439 207.605 129.189 209.188 126.287C209.881 125.076 210.655 123.912 211.502 122.803C212.697 121.156 213.881 119.498 214.986 117.786C216.062 116.317 216.817 114.637 217.201 112.857C217.586 111.077 217.591 109.236 217.216 107.453C216.614 104.591 214.837 102.297 213.413 99.8181C213.084 99.2732 212.81 98.6962 212.597 98.096C212.348 97.1755 212.278 96.2156 212.393 95.2689C212.483 93.5286 212.745 91.8014 213.174 90.1125C213.279 89.7193 213.075 89.2514 213.174 88.8682L213.189 88.893Z" fill="#263238"/>
<path d="M176.308 23.5372C176.308 30.1918 170.753 40.7187 165.98 40.7187C161.998 40.7187 155.647 30.1918 155.647 23.5372C155.647 16.8826 160.276 11.4873 165.98 11.4873C171.684 11.4873 176.308 16.8826 176.308 23.5372Z" fill="#263238" stroke="#263238" stroke-linecap="round" stroke-linejoin="round"/>
<path d="M165.687 41.0373L165.786 43.4513L167.797 42.9486L165.975 40.7188" fill="#263238"/>
<path d="M165.687 41.0373L165.786 43.4513L167.797 42.9486L165.975 40.7188" stroke="#263238" stroke-linecap="round" stroke-linejoin="round"/>
<path d="M173.352 16.2904C174.567 18.1221 174.532 20.2722 173.278 21.1134C172.023 21.9545 170.017 21.1383 168.798 19.3066C167.579 17.475 167.618 15.3248 168.873 14.4837C170.127 13.6425 172.138 14.4787 173.352 16.2904Z" fill="white"/>
<path d="M167.772 13.8014C167.692 14.2096 167.12 14.4435 166.493 14.2992C165.866 14.1548 165.428 13.7417 165.498 13.3336C165.567 12.9254 166.15 12.6965 166.777 12.8359C167.404 12.9752 167.857 13.3734 167.772 13.8014Z" fill="white"/>
<path d="M166.598 41.958C166.223 43.4473 165.976 44.9659 165.861 46.4973C165.771 47.5773 165.751 48.6624 165.756 49.7524C165.716 50.5376 165.772 51.3247 165.921 52.0967C166.304 53.2739 166.867 54.3852 167.588 55.3916C168.44 56.6613 169.197 57.9922 169.853 59.3734C170.176 60.1026 170.429 60.8609 170.609 61.6381C170.703 62.0413 170.77 62.4503 170.808 62.8625C170.808 62.9968 170.808 63.1262 170.843 63.2606C170.883 63.7036 170.843 62.952 170.843 62.9272C170.788 63.2357 170.803 63.5692 170.764 63.8778C170.46 66.1723 169.36 68.1632 168.106 70.0645C166.961 71.8115 165.732 73.4988 164.507 75.1961C163.652 76.3102 162.902 77.5016 162.267 78.7548C161.636 80.1688 161.273 81.6877 161.197 83.2343C161.078 85.4639 161.113 87.699 161.302 89.9238C161.302 89.6301 161.337 89.0975 161.302 88.7242C161.073 85.499 161.013 82.2538 162.596 79.3471C163.291 78.1366 164.064 76.9727 164.91 75.863C166.105 74.2156 167.289 72.5532 168.394 70.846C169.471 69.3767 170.225 67.6973 170.61 65.917C170.994 64.1367 170.999 62.2955 170.624 60.5132C170.022 57.6513 168.245 55.3568 166.822 52.8781C166.491 52.332 166.217 51.7532 166.005 51.151C165.756 50.2322 165.687 49.2739 165.801 48.3289C165.902 46.5984 166.168 44.8817 166.598 43.2023C166.702 42.8141 166.498 42.3462 166.598 41.958Z" fill="#263238"/>
<path d="M88.9134 13.0499C88.9134 19.7045 83.3638 30.2314 78.5856 30.2314C74.6038 30.2314 68.2578 19.7045 68.2578 13.0499C68.2578 6.39534 72.8817 1 78.5856 1C84.2895 1 88.9134 6.39534 88.9134 13.0499Z" fill="#263238" stroke="#263238" stroke-linecap="round" stroke-linejoin="round"/>
<path d="M78.291 30.55L78.3906 32.964L80.4014 32.4613L78.5847 30.2314" fill="#263238"/>
<path d="M78.291 30.55L78.3906 32.964L80.4014 32.4613L78.5847 30.2314" stroke="#263238" stroke-linecap="round" stroke-linejoin="round"/>
<path d="M85.9664 5.83808C87.1809 7.66971 87.146 9.81988 85.8918 10.666C84.6375 11.5121 82.6366 10.666 81.4122 8.85927C80.1878 7.05253 80.2326 4.87747 81.4869 4.03134C82.7412 3.18521 84.742 3.99152 85.9664 5.83808Z" fill="white"/>
<path d="M80.3816 3.29447C80.297 3.70261 79.7246 3.93156 79.0975 3.7922C78.4703 3.65283 78.0323 3.23972 78.102 2.83159C78.1717 2.42345 78.759 2.18952 79.3812 2.33386C80.0033 2.4782 80.4612 2.88634 80.3816 3.29447Z" fill="white"/>
<path d="M79.2072 31.4707C78.8429 32.9592 78.6064 34.4762 78.5004 36.005C78.4058 37.09 78.3909 38.1751 78.3959 39.2601C78.3513 40.0451 78.4048 40.8326 78.5552 41.6044C78.9378 42.7836 79.5002 43.8967 80.2225 44.9043C81.0744 46.174 81.8313 47.5049 82.4872 48.8861C82.8142 49.6143 83.0693 50.3728 83.2487 51.1507C83.34 51.5544 83.4065 51.9633 83.4478 52.3751L83.4777 52.7733C83.5225 53.2163 83.4777 52.4598 83.4777 52.4399C83.4229 52.7484 83.4428 53.0769 83.398 53.3905C83.0944 55.685 81.9944 57.6709 80.7452 59.5772C79.5954 61.3242 78.366 63.0115 77.1416 64.7038C76.2878 65.8209 75.5381 67.0137 74.9019 68.2675C74.2721 69.6817 73.9109 71.2007 73.8367 72.747C73.7148 74.9765 73.7497 77.2118 73.9413 79.4364C73.9164 79.1378 73.9711 78.6102 73.9413 78.232C73.7123 75.0117 73.6526 71.7615 75.2353 68.8598C75.9289 67.6485 76.7021 66.4846 77.5498 65.3757C78.7493 63.7233 79.9289 62.0659 81.0338 60.3537C82.1072 58.8839 82.8602 57.2053 83.2443 55.4263C83.6284 53.6473 83.635 51.8076 83.2636 50.0259C82.6564 47.164 80.8795 44.8695 79.456 42.3858C79.1267 41.8445 78.85 41.2728 78.6298 40.6786C78.3854 39.759 78.3162 38.8017 78.4258 37.8565C78.5202 36.1215 78.7819 34.3997 79.2072 32.715C79.3117 32.3268 79.1076 31.8589 79.2072 31.4707Z" fill="#263238"/>
<path d="M39.305 33.5558C39.305 40.2104 33.7554 50.7372 28.9772 50.7372C24.9954 50.7372 18.6494 40.2104 18.6494 33.5558C18.6494 26.9012 23.2534 21.5059 28.9772 21.5059C34.701 21.5059 39.305 26.9012 39.305 33.5558Z" fill="#BEBEBE" stroke="#263238" stroke-linecap="round" stroke-linejoin="round"/>
<path d="M28.6836 51.0558L28.7831 53.4698L30.7939 52.9671L28.9772 50.7373" fill="#263238"/>
<path d="M28.6836 51.0558L28.7831 53.4698L30.7939 52.9671L28.9772 50.7373" stroke="#263238" stroke-linecap="round" stroke-linejoin="round"/>
<path d="M36.3483 26.3291C37.5627 28.1557 37.5279 30.3109 36.2736 31.152C35.0193 31.9932 33.0185 31.152 31.7941 29.3453C30.5697 27.5385 30.6145 25.3635 31.8687 24.5174C33.123 23.6712 35.1338 24.4974 36.3483 26.3291Z" fill="white"/>
<path d="M30.7742 23.8003C30.6896 24.2085 30.1172 24.4374 29.49 24.2981C28.8629 24.1587 28.4249 23.7456 28.4946 23.3374C28.5643 22.9293 29.1516 22.6954 29.7737 22.8397C30.3959 22.9841 30.8538 23.3922 30.7742 23.8003Z" fill="white"/>
<path d="M29.5995 53.2215C31.8464 55.3119 33.85 57.6495 35.5722 60.1896C36.5677 61.7127 37.3889 63.2905 37.4835 65.132C37.5084 65.5999 37.5382 64.0918 37.4835 64.7488C37.4835 64.8732 37.4835 64.9927 37.4486 65.1121C37.4211 65.331 37.3762 65.5474 37.3142 65.7592C37.1878 66.1447 37.0068 66.5101 36.7767 66.8442C36.0351 67.9541 35.0944 68.9446 34.2881 69.9948C32.5916 72.1087 31.0654 74.3539 29.7239 76.7091C29.2103 77.6026 28.8313 78.5669 28.5991 79.571C28.4582 80.3926 28.4098 81.2273 28.4547 82.0597C28.5184 83.459 29.0023 84.8068 29.8434 85.927C30.9035 87.465 32.1827 88.8287 33.1881 90.4065C34.4977 92.4783 35.2772 94.8407 35.4577 97.2851C35.4229 96.8769 35.4876 96.4539 35.4577 96.0407C35.3003 93.8323 34.6489 91.6874 33.5514 89.7644C32.626 88.2986 31.6052 86.8953 30.4954 85.5636C29.6045 84.4139 28.7584 83.1646 28.5045 81.6963C28.4747 81.4972 28.4448 80.7009 28.4498 81.4624C28.4547 82.2239 28.4846 81.3529 28.5145 81.1637C28.5886 80.7188 28.7001 80.2809 28.8479 79.8547C29.2611 78.7388 29.8058 77.6762 30.4705 76.6892C31.8343 74.5469 33.313 72.4799 34.9003 70.4975C35.6911 69.6348 36.404 68.7037 37.0305 67.7152C37.4368 66.8278 37.6082 65.8509 37.5283 64.8782C37.5565 64.1823 37.5148 63.4853 37.4038 62.7977C37.1981 61.9231 36.8626 61.0843 36.4084 60.3091C34.7012 57.2083 32.1777 54.426 29.6144 51.9971C29.6742 52.0518 29.6144 52.5346 29.6144 52.6192C29.6144 52.7038 29.5448 53.1717 29.6144 53.2414L29.5995 53.2215Z" fill="#263238"/>
<path d="M146.48 15.4239C146.48 22.0785 140.93 32.6054 136.152 32.6054C132.17 32.6054 125.824 22.0785 125.824 15.4239C125.824 8.76936 130.448 3.37402 136.152 3.37402C141.856 3.37402 146.48 8.76936 146.48 15.4239Z" fill="#BEBEBE" stroke="#263238" stroke-linecap="round" stroke-linejoin="round"/>
<path d="M135.858 32.924L135.963 35.338L137.969 34.8353L136.152 32.6055" fill="#263238"/>
<path d="M135.858 32.924L135.963 35.338L137.969 34.8353L136.152 32.6055" stroke="#263238" stroke-linecap="round" stroke-linejoin="round"/>
<path d="M143.524 8.19685C144.738 10.0285 144.708 12.1787 143.449 13.0198C142.19 13.861 140.194 13.0447 138.969 11.2131C137.745 9.38144 137.785 7.23127 139.039 6.39011C140.293 5.54896 142.309 6.36523 143.524 8.19685Z" fill="white"/>
<path d="M137.949 5.66863C137.869 6.07676 137.292 6.31069 136.67 6.16635C136.047 6.02201 135.599 5.6089 135.674 5.20077C135.749 4.79263 136.331 4.56368 136.958 4.70304C137.585 4.84241 138.028 5.26049 137.949 5.66863Z" fill="white"/>
<path d="M136.779 35.0946C139.026 37.1847 141.03 39.5223 142.752 42.0628C143.747 43.5858 144.573 45.1636 144.663 47.0052C144.688 47.473 144.723 45.9649 144.663 46.6269C144.663 46.7464 144.663 46.8658 144.628 46.9853C144.603 47.2046 144.558 47.4213 144.494 47.6323C144.367 48.0178 144.186 48.3832 143.956 48.7173C143.215 49.8323 142.279 50.8177 141.468 51.8729C139.764 53.9885 138.233 56.2371 136.888 58.5972C136.37 59.4908 135.99 60.4573 135.759 61.4641C135.619 62.2858 135.572 63.1206 135.619 63.9527C135.68 65.3519 136.162 66.7001 137.003 67.82C138.063 69.358 139.347 70.7218 140.348 72.2996C141.658 74.3728 142.438 76.737 142.617 79.1831C142.582 78.77 142.647 78.3469 142.617 77.9388C142.467 75.7188 141.817 73.5614 140.716 71.6276C139.794 70.1596 138.773 68.756 137.66 67.4268C136.774 66.2771 135.923 65.0278 135.669 63.5595C135.639 63.3604 135.614 62.5641 135.614 63.3256C135.614 64.0871 135.649 63.221 135.679 63.0269C135.753 62.582 135.865 62.1441 136.012 61.7179C136.426 60.602 136.97 59.5394 137.635 58.5524C139 56.4112 140.479 54.3443 142.065 52.3607C142.857 51.499 143.57 50.5678 144.195 49.5784C144.601 48.6927 144.772 47.7174 144.693 46.7464C144.72 46.0506 144.68 45.3539 144.573 44.6659C144.367 43.7915 144.032 42.9527 143.578 42.1772C141.871 39.0714 139.352 36.2941 136.789 33.8652C136.844 33.915 136.789 34.3978 136.789 34.4874C136.789 34.577 136.719 35.0349 136.789 35.1095L136.779 35.0946Z" fill="#263238"/>
<path d="M197.954 32.0577C197.954 38.7123 192.405 49.2392 187.627 49.2392C183.645 49.2392 177.299 38.7123 177.299 32.0577C177.299 25.4032 181.923 20.0078 187.627 20.0078C193.331 20.0078 197.954 25.4032 197.954 32.0577Z" fill="#BEBEBE" stroke="#263238" stroke-linecap="round" stroke-linejoin="round"/>
<path d="M187.348 49.5578L187.447 51.9718L189.458 51.4691L187.641 49.2393" fill="#263238"/>
<path d="M187.348 49.5578L187.447 51.9718L189.458 51.4691L187.641 49.2393" stroke="#263238" stroke-linecap="round" stroke-linejoin="round"/>
<path d="M195.013 24.8306C196.227 26.6623 196.197 28.8124 194.938 29.6536C193.679 30.4948 191.683 29.6536 190.459 27.8469C189.234 26.0401 189.274 23.8651 190.528 23.0239C191.783 22.1827 193.798 22.999 195.013 24.8306Z" fill="white"/>
<path d="M189.438 22.3024C189.353 22.7106 188.781 22.9445 188.159 22.8001C187.537 22.6558 187.089 22.2427 187.163 21.8346C187.238 21.4264 187.82 21.1975 188.448 21.3368C189.075 21.4762 189.518 21.8943 189.438 22.3024Z" fill="white"/>
<path d="M188.269 51.7229C190.515 53.8145 192.518 56.1519 194.242 58.6911C195.237 60.2141 196.058 61.7919 196.153 63.6335C196.153 64.1013 196.208 62.5932 196.153 63.2552C196.153 63.3747 196.153 63.4941 196.118 63.6136C196.091 63.8326 196.046 64.049 195.984 64.2606C195.857 64.6461 195.676 65.0115 195.446 65.3457C194.704 66.4606 193.769 67.446 192.957 68.5012C191.257 70.6054 189.726 72.8405 188.378 75.1857C187.865 76.0792 187.486 77.0435 187.253 78.0476C187.114 78.8693 187.068 79.7041 187.114 80.5362C187.174 81.9354 187.657 83.2836 188.498 84.4035C189.558 85.9415 190.842 87.3053 191.842 88.8831C193.153 90.9563 193.932 93.3205 194.112 95.7666C194.077 95.3535 194.142 94.9304 194.112 94.5223C193.955 92.3121 193.304 90.1654 192.206 88.241C191.282 86.7741 190.261 85.3707 189.15 84.0402C188.264 82.8905 187.413 81.6412 187.159 80.1729C187.129 79.9738 187.099 79.1774 187.104 79.9389C187.109 80.7005 187.139 79.8294 187.169 79.6403C187.243 79.1954 187.355 78.7575 187.502 78.3313C187.915 77.2154 188.46 76.1527 189.125 75.1658C190.489 73.0234 191.967 70.9565 193.555 68.9741C194.347 68.1123 195.06 67.1812 195.685 66.1918C196.091 65.306 196.262 64.3308 196.183 63.3597C196.211 62.6638 196.169 61.9668 196.058 61.2792C195.854 60.4041 195.519 59.565 195.063 58.7906C193.356 55.6848 190.832 52.9075 188.274 50.4736C188.301 50.6801 188.301 50.8893 188.274 51.0958C188.274 51.2003 188.204 51.6483 188.274 51.7179L188.269 51.7229Z" fill="#263238"/>
<path d="M216.3 235.846C216.3 237.837 170.241 239.44 113.421 239.44C56.6004 239.44 10.5459 237.832 10.5459 235.846C10.5459 233.86 56.6054 232.258 113.421 232.258C170.236 232.258 216.3 233.865 216.3 235.846Z" fill="#263238"/>
<path d="M178.946 73.111C178.946 73.111 179.414 70.0102 185.381 69.7016C191.349 69.393 193.684 75.0521 193.604 76.5254C193.524 77.9987 193.216 78.7751 193.912 79.4719C194.609 80.1688 198.725 81.876 197.795 84.5139C196.864 87.1518 195.774 87.3808 196.476 88.0826C197.178 88.7844 199.885 89.7101 197.561 91.8006C195.236 93.891 194.301 93.8214 194.535 94.4385C194.769 95.0557 196.55 96.3797 195.386 97.3104C194.633 97.8889 193.758 98.2873 192.827 98.4751C192.827 98.4751 191.897 101.342 191.046 101.73C190.194 102.118 188.796 101.267 188.642 102.039C188.487 102.81 189.104 103.671 186.78 103.592C184.456 103.512 184.142 101.81 183.366 102.039C182.589 102.268 181.504 102.741 180.962 101.651C180.419 100.561 180.728 99.9483 180.031 99.6348C179.334 99.3212 176.776 98.3954 176.388 97.1462C175.999 95.8969 177.084 93.9657 176.542 93.1096C175.999 92.2535 174.218 91.0938 174.601 89.7002C174.984 88.3066 178.015 86.8283 176.776 85.8229C175.536 84.8175 174.526 81.7117 175.148 80.8457C175.77 79.9796 176.079 79.1434 175.691 78.9095C175.303 78.6756 173.441 77.7448 174.198 75.5748C174.954 73.4047 176.776 72.5685 178.946 73.111Z" fill="#263238" stroke="#263238" stroke-linecap="round" stroke-linejoin="round"/>
<path d="M167.065 162.064C167.065 162.064 165.228 170.61 165.228 172.665C165.228 174.721 167.607 191.698 167.821 196.785C168.035 201.872 170.31 217.008 170.634 218.307C170.957 219.606 171.823 228.903 170.853 231.501C169.882 234.099 168.737 235.573 167.931 234.527C166.094 232.148 168.254 221.656 168.254 221.656C168.254 221.656 155.383 185.86 153.761 180.992C152.138 176.124 151.272 169.201 151.272 163.905C151.271 160.689 151.089 157.475 150.729 154.279L167.065 162.064Z" fill="white" stroke="#263238" stroke-linecap="round" stroke-linejoin="round"/>
<path d="M164.144 162.806L151.636 159.909L164.736 160.367L164.144 162.806Z" fill="#263238" stroke="#263238" stroke-linecap="round" stroke-linejoin="round"/>
<path d="M167.931 234.528C167.239 233.632 167.114 231.586 167.229 229.381C167.318 229.792 167.488 230.18 167.727 230.526C168.264 231.068 169.344 230.849 170.106 230.849C170.867 230.849 171.101 225.987 171.101 225.987L171.251 224.12C171.4 227.017 171.39 230.158 170.887 231.501C169.877 234.095 168.737 235.573 167.931 234.528Z" fill="#263238" stroke="#263238" stroke-linecap="round" stroke-linejoin="round"/>
<path d="M182.071 162.458C182.071 162.458 170.897 185.224 171.619 186.164C172.341 187.105 178.408 195.352 178.722 199.324C179.035 203.296 183.42 216.033 184.57 220.313C185.72 224.594 186.138 225.644 185.824 228.461C185.51 231.278 184.152 235.563 182.897 234.623C181.643 233.682 181.121 230.447 180.907 227.416C180.693 224.385 180.697 220 180.697 220C180.697 220 176.716 210.289 172.973 204.963C169.23 199.638 165.557 194.417 164.407 190.236C163.257 186.055 161.799 186.164 162.317 180.107C162.446 178.649 164.721 160.367 164.721 160.367L182.071 162.458Z" fill="white" stroke="#263238" stroke-linecap="round" stroke-linejoin="round"/>
<path d="M180.438 165.543L165.88 161.666L180.807 163.886L180.438 165.543Z" fill="#263238" stroke="#263238" stroke-linecap="round" stroke-linejoin="round"/>
<path d="M184.893 229.316C185.446 227.588 185.665 225.771 185.54 223.961C185.937 225.433 186.037 226.969 185.834 228.48C185.52 231.302 184.161 235.583 182.907 234.642C181.862 233.856 181.324 231.472 181.056 228.943L184.893 229.316Z" fill="#263238" stroke="#263238" stroke-linecap="round" stroke-linejoin="round"/>
<path d="M181.2 132.952C181.2 132.952 185.102 140.94 187.098 146.39C189.094 151.841 188.278 156.196 187.188 158.644C186.098 161.093 182.211 163.731 182.211 163.731L150.71 159.824C150.71 159.824 145.812 150.746 147.171 145.3C148.53 139.855 153.437 132.594 155.886 129.687C158.335 126.78 159.788 126.327 159.788 126.327L181.2 132.952Z" fill="#BEBEBE" stroke="#263238" stroke-linecap="round" stroke-linejoin="round"/>
<path d="M154.577 155.071L152.69 155.126" stroke="#263238" stroke-linecap="round" stroke-linejoin="round"/>
<path d="M174.471 154.523L156.424 155.021" stroke="#263238" stroke-linecap="round" stroke-linejoin="round"/>
<path d="M161.48 152.095L150.734 154.28" stroke="#263238" stroke-linecap="round" stroke-linejoin="round"/>
<path d="M163.282 151.727L162.551 151.876" stroke="#263238" stroke-linecap="round" stroke-linejoin="round"/>
<path d="M155.597 83.5729C157.294 80.5617 174.799 53.8289 174.799 53.8289C174.799 53.8289 172.769 50.3448 172.311 49.1353C171.853 47.9259 171.873 45.3626 171.873 42.9735C171.873 41.3907 172.928 42.6201 172.928 42.6201C172.928 42.6201 173.719 41.5649 173.983 42.0029C174.088 42.1771 174.277 42.5007 174.481 42.864C174.64 42.6599 174.914 42.4459 175.148 42.9735C175.501 43.7649 177.522 47.901 177.522 47.901C177.36 46.9982 177.244 46.0879 177.173 45.1734C177.173 44.4667 177.701 44.2925 178.229 45.3476C178.756 46.4028 178.846 47.5476 178.93 48.9561C179.015 50.3647 179.373 50.8923 178.846 52.2113C178.318 53.5302 176.467 56.7903 176.467 56.7903L162.759 85.2702L168.234 98.0716L163.531 106.533C163.531 106.533 153.905 86.5841 155.597 83.5729Z" fill="white" stroke="#263238" stroke-linecap="round" stroke-linejoin="round"/>
<path d="M176.109 53.8835C176.109 53.8835 176.905 51.9474 176.288 51.156C175.567 50.402 174.77 49.7248 173.909 49.1352L172.943 46.4923C172.943 46.4923 172.57 44.1181 172.072 44.2923" stroke="#263238" stroke-linecap="round" stroke-linejoin="round"/>
<path d="M174.476 42.8643L176.287 47.9012" stroke="#263238" stroke-linecap="round" stroke-linejoin="round"/>
<path d="M172.943 42.6201C172.943 42.6201 173.909 46.6716 174.616 48.0951" stroke="#263238" stroke-linecap="round" stroke-linejoin="round"/>
<path d="M182.285 96.1848L180.294 102.904C180.294 102.904 186.65 106.353 188.009 107.08C189.368 107.807 191.463 112.615 189.646 117.532C187.83 122.45 181.747 128.696 181.658 129.244C181.568 129.791 181.205 132.967 181.205 132.967L159.803 126.337L161.166 122.524C161.166 122.524 160.619 110.908 161.893 108.638C163.167 106.368 168.239 98.0861 168.239 98.0861L172.933 100.246L175.053 95.6572L182.285 96.1848Z" fill="white" stroke="#263238" stroke-linecap="round" stroke-linejoin="round"/>
<path d="M161.122 122.51C161.122 122.51 160.575 110.893 161.849 108.623C163.123 106.353 168.195 98.0713 168.195 98.0713L172.391 99.9328L168.384 108.892L177.547 112.351L181.877 103.785L185.984 106.01L182.723 115.621L187.522 121.504C185.033 125.302 181.698 128.836 181.633 129.239C181.544 129.781 181.18 132.962 181.18 132.962L159.778 126.332L161.122 122.51Z" fill="#BEBEBE" stroke="#263238" stroke-linecap="round" stroke-linejoin="round"/>
<path d="M161.122 122.604L181.619 129.573C181.489 130.568 181.221 132.927 181.221 132.927L159.818 126.298L161.122 122.604Z" fill="#263238" stroke="#263238" stroke-linecap="round" stroke-linejoin="round"/>
<path d="M187.556 89.9538C187.556 89.9538 189.338 88.7891 189.417 90.7252C189.497 92.6614 185.227 94.2093 185.227 94.2093L187.556 89.9538Z" stroke="#263238" stroke-linecap="round" stroke-linejoin="round"/>
<path d="M172.898 84.9023C172.898 84.9023 171.345 83.2698 171.191 84.9023C171.037 86.5349 172.042 89.2425 172.042 89.2425L172.898 84.9023Z" stroke="#263238" stroke-linecap="round" stroke-linejoin="round"/>
<path d="M183.679 76.8334C183.679 76.8334 188.716 79.9342 189.03 83.269C189.343 86.6037 188.253 87.848 187.536 89.9435C186.82 92.0389 184.276 96.613 179.856 98.6288C175.437 100.645 173.267 94.7515 172.799 93.0443C172.331 91.3371 171.714 89.5602 172.177 87.1512C172.639 84.7422 173.421 79.9342 177.064 77.3013C180.708 74.6683 183.679 76.8334 183.679 76.8334Z" fill="white" stroke="#263238" stroke-linecap="round" stroke-linejoin="round"/>
<path d="M184.221 79.6258C184.221 79.6258 179.642 84.6031 175.999 84.9017C172.356 85.2003 171.111 84.7474 172.356 81.333C173.6 77.9186 179.025 74.7382 181.972 74.6635C182.754 74.6012 183.532 74.8267 184.16 75.2978C184.788 75.7689 185.222 76.4531 185.381 77.2218C185.381 77.2218 188.562 79.0833 189.418 81.9552C190.274 84.827 188.422 89.5554 187.556 89.9188C186.69 90.2821 186.561 87.898 186.561 87.898C186.561 87.898 185.864 87.4351 185.784 84.4886C185.705 81.5421 185.54 79.8597 184.221 79.6258Z" fill="#263238" stroke="#263238" stroke-linecap="round" stroke-linejoin="round"/>
<path d="M179.722 92.1143C179.448 92.3239 179.119 92.4499 178.774 92.4772C178.43 92.5046 178.085 92.4322 177.781 92.2686C176.621 91.7261 177.01 91.1836 177.01 91.1836" stroke="#263238" stroke-linecap="round" stroke-linejoin="round"/>
<path d="M176.388 93.1992C176.854 93.5234 177.385 93.744 177.944 93.8461C178.503 93.9483 179.077 93.9297 179.628 93.7915C179.628 93.7915 178.135 96.1806 177.483 95.7824C176.831 95.3842 176.388 93.1992 176.388 93.1992Z" fill="#263238" stroke="#263238" stroke-linecap="round" stroke-linejoin="round"/>
<path d="M184.221 89.5556C184.221 89.5556 184.376 87.6941 181.35 88.6249" stroke="#263238" stroke-linecap="round" stroke-linejoin="round"/>
<path d="M176.85 87.9232C176.85 87.9232 176.308 85.9323 174.914 86.0617" stroke="#263238" stroke-linecap="round" stroke-linejoin="round"/>
<path d="M185.227 88.157C185.227 88.157 184.376 85.7529 182.206 86.0615" stroke="#263238" stroke-linecap="round" stroke-linejoin="round"/>
<path d="M178.169 84.977C178.169 84.977 177.393 83.4838 174.914 84.2005" stroke="#263238" stroke-linecap="round" stroke-linejoin="round"/>
<path d="M167.094 120.967C168.008 120.967 168.884 120.604 169.53 119.958C170.176 119.312 170.539 118.436 170.539 117.523L169.483 108.867H164.661L163.61 117.523C163.61 117.978 163.701 118.429 163.876 118.85C164.052 119.27 164.309 119.652 164.633 119.972C164.957 120.293 165.342 120.545 165.764 120.716C166.187 120.887 166.639 120.972 167.094 120.967Z" fill="white" stroke="#263238" stroke-linecap="round" stroke-linejoin="round"/>
<path d="M170.171 114.602L170.519 117.523C170.486 118.415 170.108 119.258 169.465 119.877C168.822 120.496 167.965 120.841 167.073 120.841C166.181 120.841 165.323 120.496 164.681 119.877C164.038 119.258 163.66 118.415 163.626 117.523L163.974 114.602H170.171Z" fill="#BEBEBE" stroke="#263238" stroke-linecap="round" stroke-linejoin="round"/>
<path d="M167.075 120.967V129.239" stroke="#263238" stroke-linecap="round" stroke-linejoin="round"/>
<path d="M167.075 129.239L172.336 130.484H161.62L167.075 129.239Z" fill="white" stroke="#263238" stroke-linecap="round" stroke-linejoin="round"/>
<path d="M186.009 106C186.009 106 190.737 106.896 192.37 111.256C194.002 115.616 195.998 140.482 195.092 140.667C194.186 140.851 172.49 126.048 172.49 126.048C172.49 126.048 169.858 126.959 168.768 126.959C167.677 126.959 166.498 127.049 165.592 126.233C164.686 125.416 165.229 124.69 165.134 124.416C165.04 124.142 163.775 123.42 164.139 122.425C164.502 121.429 163.955 121.698 164.502 121.429C165.05 121.161 170.31 120.703 170.853 120.977C171.395 121.25 174.397 124.152 174.397 124.152L187.193 129.602L186.377 114.894" fill="white"/>
<path d="M186.009 106C186.009 106 190.737 106.896 192.37 111.256C194.002 115.616 195.998 140.482 195.092 140.667C194.186 140.851 172.49 126.048 172.49 126.048C172.49 126.048 169.858 126.959 168.768 126.959C167.677 126.959 166.498 127.049 165.592 126.233C164.686 125.416 165.229 124.69 165.134 124.416C165.04 124.142 163.775 123.42 164.139 122.425C164.502 121.429 163.955 121.698 164.502 121.429C165.05 121.161 170.31 120.703 170.853 120.977C171.395 121.25 174.397 124.152 174.397 124.152L187.193 129.602L186.377 114.894" stroke="#263238" stroke-linecap="round" stroke-linejoin="round"/>
<path d="M187.188 129.593L191.816 131.589" stroke="#263238" stroke-linecap="round" stroke-linejoin="round"/>
<path d="M53.0157 72.5329C53.0157 72.5329 50.9054 70.0194 49.6013 70.0194C48.2973 70.0194 49.9 71.8311 49.9 71.8311C49.9 71.8311 44.5793 72.1298 44.5793 73.2347C44.5618 73.5242 44.6548 73.8096 44.8396 74.0332C45.0243 74.2568 45.2871 74.4019 45.5748 74.4392C45.5748 74.4392 39.4478 78.7595 37.8401 82.2784C36.2325 85.7973 38.9451 85.6928 38.9451 85.6928C38.9451 85.6928 36.2325 90.3166 36.9542 91.7202C37.6759 93.1238 39.3631 93.3279 39.3631 93.3279C39.3631 93.3279 39.4627 96.7422 41.1699 97.5486C42.8771 98.3549 43.8825 97.9517 43.8825 97.9517C43.8825 97.9517 46.5951 99.5594 47.8046 100.162C48.3815 100.501 49.0416 100.673 49.7108 100.659C49.7108 100.659 56.3405 102.267 58.4509 101.864C60.5613 101.461 62.2684 99.1512 62.2684 99.1512C62.2684 99.1512 64.5779 98.7481 65.2847 97.9467C65.9353 97.0596 66.5066 96.117 66.9919 95.1296C67.4609 95.157 67.9266 95.0362 68.3232 94.7843C68.7198 94.5324 69.0272 94.1622 69.2018 93.726C70.0031 92.1184 69.3013 88.1017 69.3013 88.1017C69.3013 88.1017 71.108 87.395 71.108 85.8869C71.108 84.3788 69.6149 82.572 69.6149 82.572C69.6149 82.572 72.0238 80.4617 69.1171 77.8536C66.2104 75.2455 60.5762 72.9311 60.5762 72.9311C60.5762 72.9311 62.2834 72.0252 60.7753 71.3234C59.6519 70.7814 58.377 70.6391 57.1618 70.9203C56.6641 71.1194 57.6595 69.5117 56.0568 69.5117C54.4542 69.5117 53.0157 72.5329 53.0157 72.5329Z" fill="#263238" stroke="#263238" stroke-linecap="round" stroke-linejoin="round"/>
<path d="M55.326 162.064C55.326 162.064 57.1626 170.61 57.1626 172.665C57.1626 174.721 54.7835 191.698 54.5695 196.785C54.3555 201.872 52.0809 217.008 51.7574 218.307C51.4338 219.606 50.5678 228.903 51.5384 231.501C52.5089 234.099 53.6537 235.573 54.46 234.527C56.3016 232.148 54.1365 221.656 54.1365 221.656C54.1365 221.656 67.0076 185.86 68.6302 180.992C70.2528 176.124 71.1188 169.201 71.1188 163.905C71.1203 160.689 71.2997 157.476 71.6564 154.279L55.326 162.064Z" fill="#C2C2C2" stroke="#263238" stroke-linecap="round" stroke-linejoin="round"/>
<path d="M54.4594 234.528C55.1512 233.632 55.2756 231.586 55.1661 229.381C55.0743 229.791 54.9054 230.179 54.6684 230.526C54.1259 231.068 53.0458 230.849 52.2893 230.849C51.5327 230.849 51.2938 225.987 51.2938 225.987L51.1445 224.12C50.9952 227.017 51.0052 230.158 51.5079 231.501C52.5133 234.095 53.6531 235.573 54.4594 234.528Z" fill="#263238" stroke="#263238" stroke-linecap="round" stroke-linejoin="round"/>
<path d="M69.9288 158.062C69.9288 158.062 81.1724 169.853 81.0679 171.366C80.9634 172.879 55.3256 183.371 51.2044 184.561C47.0833 185.751 35.9541 191.594 35.6306 192.241C35.3071 192.888 32.8185 196.133 32.1465 198.189C31.4746 200.244 32.037 202.17 30.957 201.867C29.8769 201.563 28.9014 198.731 28.9014 196.457C28.9014 194.182 30.6335 190.076 30.738 188.453C30.8425 186.831 31.39 186.184 33.0126 186.074C34.6352 185.965 35.8247 186.726 36.6858 186.507C37.5468 186.288 42.6585 184.018 47.6357 180.669C52.613 177.319 62.5675 171.043 62.5675 171.043C62.5675 171.043 54.7781 169.744 49.6963 163.796C44.6145 157.848 65.2751 154.384 69.9288 158.062Z" fill="#C2C2C2" stroke="#263238" stroke-linecap="round" stroke-linejoin="round"/>
<path d="M70.8799 170.938C71.2559 170.862 71.6241 170.752 71.9799 170.609" stroke="#263238" stroke-linecap="round" stroke-linejoin="round"/>
<path d="M62.5723 171.043C64.4515 171.244 66.3425 171.314 68.2314 171.252" stroke="#263238" stroke-linecap="round" stroke-linejoin="round"/>
<path d="M30.9921 201.866C32.0722 202.19 31.5297 200.244 32.1817 198.188C32.2759 197.898 32.3889 197.613 32.5201 197.337C31.6889 197.261 30.894 196.96 30.2207 196.466C30.2207 196.466 31.0867 190.737 31.8432 188.682C32.2411 187.709 32.8301 186.825 33.5753 186.084C33.3946 186.074 33.2135 186.074 33.0328 186.084C31.4102 186.193 30.8677 186.84 30.7582 188.463C30.6487 190.085 28.9365 194.187 28.9365 196.466C28.9365 198.746 29.9121 201.543 30.9921 201.866Z" fill="#263238" stroke="#263238" stroke-linecap="round" stroke-linejoin="round"/>
<path d="M50.8065 99.2011C50.8065 99.2011 50.1595 103.218 49.9455 103.795C49.7314 104.372 43.699 104.731 40.6828 105.159C37.6666 105.587 35.4418 108.752 34.6504 110.763C33.859 112.774 24.885 125.79 25.7411 128.213C26.5972 130.637 28.5383 130.583 31.2161 127.422C33.8938 124.262 41.3448 116.218 41.4891 115.93C41.6334 115.641 45.5107 127.208 45.5107 127.208C42.7356 131.66 40.7833 136.574 39.7471 141.717C38.2539 149.835 41.738 157.948 43.699 160.605C45.66 163.263 49.174 165.991 49.174 165.991C49.174 165.991 57.7199 160.018 63.394 159.097C66.6928 158.518 70.0795 158.688 73.3037 159.595C73.3037 159.595 73.3783 148.177 71.5119 141.423C69.6454 134.669 64.8324 125.914 64.8324 125.914C64.8324 125.914 66.8233 119.09 67.0572 117.01C67.2912 114.929 67.1319 110.116 67.1319 110.116C70.2372 107.409 72.9806 104.312 75.2946 100.903C79.3909 95.0152 82.6211 88.4602 82.8351 87.6191C83.0491 86.7779 70.392 62.3396 70.392 62.3396C70.392 62.3396 70.8897 58.8904 70.5363 58.0293C70.2432 57.3632 69.9108 56.715 69.5409 56.0882C69.7711 55.1748 69.8434 54.2288 69.7549 53.291C69.6155 51.7082 69.6155 51.2055 69.3269 51.5639C69.0382 51.9222 68.5355 54.7991 68.5355 54.7991C68.5355 54.7991 67.7441 52.8579 67.3161 51.8525C66.9531 51.0186 66.546 50.2045 66.0966 49.4137C65.7333 48.7666 64.6582 50.0558 64.5139 51.2055C64.3695 52.3552 64.1555 56.3769 64.5139 57.9596C64.8722 59.5424 67.7441 63.7034 68.0328 64.2061C68.3215 64.7088 73.5625 80.7206 74.1399 82.373C74.7172 84.0255 75.429 86.972 75.429 86.972C75.429 86.972 70.1182 95.1596 69.3269 96.0903C68.5355 97.0211 68.8291 97.0261 67.1717 98.0812C65.5143 99.1364 62.1447 101.097 61.4976 101.6C60.8506 102.103 60.2036 102.536 60.2036 102.536L58.7104 102.82L58.138 98.9423L50.8065 99.2011Z" fill="#C2C2C2" stroke="#263238" stroke-linecap="round" stroke-linejoin="round"/>
<path d="M67.1113 110.116L68.2362 104.477" stroke="#263238" stroke-linecap="round" stroke-linejoin="round"/>
<path d="M66.7933 61.7922C66.7933 61.7922 65.2653 58.5769 65.1856 57.9298C65.0207 56.4976 64.7781 55.0753 64.459 53.6693C64.0558 52.0617 65.6635 52.6241 65.987 53.4304C66.2588 54.376 66.447 55.3436 66.5494 56.3222C66.5494 56.3222 68.3213 57.447 68.6399 58.4126C68.8446 59.0927 68.9535 59.7979 68.9634 60.508" fill="#C2C2C2"/>
<path d="M66.7933 61.7922C66.7933 61.7922 65.2653 58.5769 65.1856 57.9298C65.0207 56.4976 64.7781 55.0753 64.459 53.6693C64.0558 52.0617 65.6635 52.6241 65.987 53.4304C66.2588 54.376 66.447 55.3436 66.5494 56.3222C66.5494 56.3222 68.3213 57.447 68.6399 58.4126C68.8446 59.0927 68.9535 59.7979 68.9634 60.508" stroke="#263238" stroke-linecap="round" stroke-linejoin="round"/>
<path d="M64.5234 51.2256C64.5906 51.1785 64.667 51.1461 64.7476 51.1306C64.8282 51.1151 64.9112 51.1168 64.9911 51.1356C65.071 51.1544 65.146 51.1899 65.2112 51.2397C65.2765 51.2895 65.3304 51.3526 65.3696 51.4247C65.6604 52.0589 65.8678 52.7281 65.9867 53.4156" stroke="#263238" stroke-linecap="round" stroke-linejoin="round"/>
<path d="M65.0615 49.9417C65.0615 49.9417 65.7534 49.6431 65.9524 50.7331C66.3774 52.326 66.8892 53.8946 67.4854 55.4316" stroke="#263238" stroke-linecap="round" stroke-linejoin="round"/>
<path d="M58.5609 101.898H58.4414C58.4414 101.898 58.5011 101.968 58.5907 102.098L58.5609 101.898Z" stroke="#263238" stroke-linecap="round" stroke-linejoin="round"/>
<path d="M67.1514 114.212L67.037 114.063C67.037 114.063 62.871 105.303 62.224 104.606C61.8109 104.143 60.8353 103.208 60.1883 102.615L59.0137 102.839C59.4677 103.773 59.73 104.789 59.7851 105.826C59.9295 108.339 58.491 112.296 57.416 113.938C56.3409 115.581 54.9721 117.89 54.9721 117.89L49.8008 109.2C48.8544 107.737 48.3641 106.025 48.3922 104.283C48.0985 104.332 47.775 104.377 47.3968 104.422L42.738 119.264C43.9127 122.594 45.4706 127.228 45.4706 127.228C42.7116 131.676 40.7729 136.583 39.7467 141.716C38.2535 149.834 41.7376 157.947 43.6987 160.605C45.6597 163.263 49.1736 165.991 49.1736 165.991C49.1736 165.991 57.7196 160.018 63.3936 159.097C66.6924 158.518 70.0792 158.688 73.3033 159.595C73.3033 159.595 73.378 148.177 71.5115 141.423C69.6451 134.669 64.832 125.914 64.832 125.914C64.832 125.914 66.8229 119.09 67.0569 117.009C67.1116 116.298 67.1415 115.262 67.1514 114.212Z" fill="#BEBEBE" stroke="#263238" stroke-linecap="round" stroke-linejoin="round"/>
<path d="M52.6476 83.0801C52.6476 83.0801 47.7201 88.0971 47.3717 88.8736C47.0233 89.65 47.7201 91.8152 47.7201 91.8152C47.7201 91.8152 46.3364 89.0478 45.555 89.655C44.7736 90.2622 44.8632 92.074 45.8138 93.4576C46.0967 93.8622 46.4676 94.1973 46.8986 94.4378C47.3297 94.6783 47.8097 94.818 48.3025 94.8463C48.3025 94.8463 49.3427 98.0467 50.0345 99.1665C50.7264 100.286 53.1602 102.516 53.8521 102.775C54.5439 103.034 56.1416 102.775 56.49 102.342C56.8384 101.909 59.7203 99.2561 60.2429 97.7829C60.7655 96.3096 61.1935 94.6721 61.1935 94.6721C62.1781 93.8099 62.9223 92.7073 63.3537 91.4717C63.8514 89.655 63.0948 88.7044 63.0948 88.7044L61.4523 91.1233L60.8451 87.7537C59.8736 87.4096 58.9668 86.9048 58.1624 86.2605C56.8683 85.2253 54.8774 83.4932 54.8774 83.4932C54.8774 83.4932 53.4937 85.3099 52.9761 85.1357C52.4585 84.9615 52.6476 83.0801 52.6476 83.0801Z" fill="#C2C2C2" stroke="#263238" stroke-linecap="round" stroke-linejoin="round"/>
<path d="M48.1382 90.063C46.8988 90.0083 46.7943 90.2273 46.8491 90.6006C46.9038 90.9739 47.4364 93.129 47.8146 93.6666C48.1929 94.2041 50.0196 94.662 51.1992 94.4181C52.3788 94.1742 53.0308 93.776 53.3493 93.2335C53.627 92.6484 53.8438 92.0363 53.9964 91.4069L54.2651 90.6006C54.2651 90.6006 49.3576 90.1178 48.1382 90.063Z" fill="white" stroke="#263238" stroke-linecap="round" stroke-linejoin="round"/>
<path d="M60.9151 90.0632C59.6807 90.1179 54.7881 90.6007 54.7881 90.6007C54.7881 90.6007 55.0021 91.2477 55.0569 91.407C55.2094 92.0365 55.4262 92.6486 55.7039 93.2337C56.0224 93.7762 56.6695 94.1495 57.8541 94.4183C59.0387 94.687 60.8404 94.2042 61.2386 93.6667C61.6368 93.1292 62.1544 90.979 62.2341 90.6007C62.3137 90.2224 62.1544 90.0084 60.9151 90.0632Z" fill="white" stroke="#263238" stroke-linecap="round" stroke-linejoin="round"/>
<path d="M53.9814 91.4069H55.0565L54.7878 90.6006H54.2502L53.9814 91.4069Z" stroke="#263238" stroke-linecap="round" stroke-linejoin="round"/>
<path d="M53.0012 91.0634C53.0012 91.0634 48.1633 90.5657 47.8597 90.7598C47.5561 90.9539 48.009 92.8502 48.3574 93.1538C49.1972 93.6627 50.1885 93.8616 51.1596 93.7163C51.6231 93.6668 52.0593 93.4729 52.4067 93.1622C52.7541 92.8514 52.9951 92.4393 53.0957 91.9842C53.2052 91.4715 53.5636 91.2675 53.0012 91.0634Z" fill="#263238" stroke="#263238" stroke-linecap="round" stroke-linejoin="round"/>
<path d="M56.062 91.0634C56.062 91.0634 60.8999 90.5657 61.2035 90.7598C61.5071 90.9539 61.0542 92.8502 60.7058 93.1538C59.866 93.6627 58.8746 93.8616 57.9036 93.7163C57.4401 93.6668 57.0038 93.4729 56.6564 93.1622C56.309 92.8514 56.068 92.4393 55.9674 91.9842C55.8579 91.4715 55.4996 91.2675 56.062 91.0634Z" fill="#263238" stroke="#263238" stroke-linecap="round" stroke-linejoin="round"/>
<path d="M53.001 96.4241C53.3909 96.668 53.8231 96.8368 54.2752 96.9218C54.8807 96.9132 55.4685 96.7167 55.9575 96.3594" stroke="#263238" stroke-linecap="round" stroke-linejoin="round"/>
<path d="M56.1465 89.3758C56.1465 89.3758 58.5306 88.5646 60.1283 89.6795" stroke="#263238" stroke-linecap="round" stroke-linejoin="round"/>
<path d="M53.4588 89.6296C53.4588 89.6296 50.9701 88.1364 48.8896 89.3757" stroke="#263238" stroke-linecap="round" stroke-linejoin="round"/>
<path d="M52.4932 98.1064C53.1675 98.4144 53.8783 98.6352 54.6085 98.7634C55.5243 98.8679 56.689 97.8525 56.689 97.8525C56.689 97.8525 56.0818 99.5747 54.8126 100.033C53.5434 100.49 52.4932 98.1064 52.4932 98.1064Z" fill="#263238" stroke="#263238" stroke-linecap="round" stroke-linejoin="round"/>
<path d="M45.038 108.244C44.1245 108.244 43.2485 107.881 42.6026 107.236C41.9566 106.59 41.5938 105.714 41.5938 104.8L42.624 96.1396H47.452L48.4823 104.8C48.4823 105.714 48.1194 106.59 47.4735 107.236C46.8275 107.881 45.9515 108.244 45.038 108.244Z" fill="white" stroke="#263238" stroke-linecap="round" stroke-linejoin="round"/>
<path d="M41.9422 101.898L41.5938 104.815C41.5937 105.729 41.9566 106.605 42.6026 107.251C43.2485 107.896 44.1245 108.259 45.038 108.259C45.9515 108.259 46.8275 107.896 47.4735 107.251C48.1194 106.605 48.4823 105.729 48.4823 104.815L48.1388 101.898H41.9422Z" fill="#BEBEBE" stroke="#263238" stroke-linecap="round" stroke-linejoin="round"/>
<path d="M45.0381 108.245V116.522" stroke="#263238" stroke-linecap="round" stroke-linejoin="round"/>
<path d="M45.0374 116.521L39.7715 117.766H50.4875L45.0374 116.521Z" fill="white" stroke="#263238" stroke-linecap="round" stroke-linejoin="round"/>
<path d="M39.8862 114.302C39.8862 114.302 41.4092 111.385 41.678 110.524C41.9468 109.663 44.8584 108.533 45.7892 107.801C46.7199 107.07 47.8448 106.677 48.243 106.876C48.6412 107.075 48.5068 107.672 48.3724 107.936C48.2498 108.15 48.1401 108.371 48.0439 108.598C47.9742 108.797 48.6362 110.853 48.243 111.714C47.7009 112.698 47.1027 113.65 46.4512 114.566C46.4512 114.566 48.243 112.988 48.243 113.704C48.243 114.635 47.4466 115.033 46.4512 115.825C45.7653 116.389 44.9399 116.757 44.0621 116.89C43.2657 117.089 41.2798 117.681 41.2798 117.681C41.2798 117.681 38.6916 119.14 37.4971 121.394C36.3026 123.649 31.8628 129.358 30.8674 130.682C29.8719 132.006 26.7562 133.2 25.4969 133.399C24.2377 133.599 22.645 132.668 23.6404 128.955C24.6359 125.242 26.358 125.705 29.0109 123.186C31.6638 120.668 39.0251 115.626 39.0251 115.626L39.8862 114.302Z" fill="#C2C2C2" stroke="#263238" stroke-linecap="round" stroke-linejoin="round"/>
<path d="M57.8691 149.864C61.2039 151.94 66.002 155.11 68.5204 157.629" stroke="#263238" stroke-linecap="round" stroke-linejoin="round"/>
<path d="M54.2451 147.689C54.2451 147.689 54.8922 148.063 55.9224 148.685" stroke="#263238" stroke-linecap="round" stroke-linejoin="round"/>
</svg>
